SplineFontDB: 3.2
FontName: Dreluhu
FullName: Dreluhu
FamilyName: Dreluhu
Weight: Book
Copyright: Copyright (c) 2019, Jack Humbert
UComments: "2019-8-23: Created with FontForge (http://fontforge.org)"
Version: 0.1
DefaultBaseFilename: fontforge-15
ItalicAngle: 0
UnderlinePosition: -200
UnderlineWidth: 25
Ascent: 867
Descent: 133
InvalidEm: 0
sfntRevision: 0x0000199a
LayerCount: 2
Layer: 0 0 "Back" 1
Layer: 1 1 "Fore" 0
XUID: [1021 647 -312734098 29385]
StyleMap: 0x0040
FSType: 0
OS2Version: 3
OS2_WeightWidthSlopeOnly: 0
OS2_UseTypoMetrics: 0
CreationTime: 1566577596
ModificationTime: 1567906414
PfmFamily: 17
TTFWeight: 400
TTFWidth: 5
LineGap: 90
VLineGap: 90
Panose: 2 1 6 0 3 1 1 1 1 1
OS2TypoAscent: 0
OS2TypoAOffset: 1
OS2TypoDescent: 0
OS2TypoDOffset: 1
OS2TypoLinegap: 90
OS2WinAscent: 0
OS2WinAOffset: 1
OS2WinDescent: 0
OS2WinDOffset: 1
HheadAscent: 0
HheadAOffset: 1
HheadDescent: 0
HheadDOffset: 1
OS2Vendor: 'OLKB'
OS2CodePages: 00020000.00000000
Lookup: 6 0 0 "semivowels" { "semivowels contextual 0"  "semivowels contextual 1"  } ['liga' ('latn' <'dflt' > 'DFLT' <'dflt' > ) ]
Lookup: 1 0 0 "Single Substitution lookup 1" { "Single Substitution lookup 1 subtable"  } []
Lookup: 1 0 0 "Single Substitution lookup 2" { "Single Substitution lookup 2 subtable"  } []
Lookup: 4 0 1 "diphthongs" { "diphthongs subtable"  } ['liga' ('latn' <'dflt' > 'DFLT' <'dflt' > ) ]

StartChar: ny
Encoding: 0 60256 0
Width: 600
VWidth: 2494
GlyphClass: 2
Flags: W
HStem: 401 66<132.991 466.991> 601 66<132.996 466.994 532.996 533> 801 66<132.999 466.999>
VStem: 66.9902 66.0008<467 601 667 801> 466.991 65.9992<467 601 667 801>
CounterMasks: 1 e0
AnchorPoint: "Above" 0 0 basechar 0
LayerCount: 2
Back
SplineSet
100 834 m 1
 500 834 l 1
 499.990234375 434 l 1
 99.990234375 434 l 1
 100 834 l 1
100 634 m 1
 500 634 l 1025
EndSplineSet
Fore
SplineSet
100 867 m 2,0,-1
 500 867 l 2,1,2
 514.056355279 867 514.056355279 867 523.528320031 856.332147646 c 128,-1,3
 533.000284783 845.664295292 533.000284783 845.664295292 532.99999999 833.999194336 c 2,4,-1
 532.995922861 667 l 1,5,-1
 533 667 l 1,6,-1
 533 634 l 1,7,-1
 533 601 l 1,8,-1
 532.994311533 601 l 1,9,-1
 532.990234365 433.999194336 l 2,10,11
 532.989900129 420.308870607 532.989900129 420.308870607 522.882579671 410.654435303 c 128,-1,12
 512.775259214 401 512.775259214 401 499.990234375 401 c 2,13,-1
 99.990234375 401 l 2,14,15
 85.9338790962 401 85.9338790962 401 76.4619143443 411.667852354 c 128,-1,16
 66.9899495923 422.335704708 66.9899495923 422.335704708 66.9902343848 434.000805664 c 2,17,-1
 67.0000000098 834.000805664 l 2,18,19
 67.0003342463 847.691129393 67.0003342463 847.691129393 77.1076547036 857.345564697 c 128,-1,20
 87.2149751609 867 87.2149751609 867 100 867 c 2,0,-1
466.995922842 667 m 1,21,-1
 466.999194326 801 l 1,22,-1
 132.999194346 801 l 1,23,-1
 132.995922862 667 l 1,24,-1
 466.995922842 667 l 1,21,-1
466.994311513 601 m 1,25,-1
 132.994311533 601 l 1,26,-1
 132.991040049 467 l 1,27,-1
 466.991040029 467 l 1,28,-1
 466.994311513 601 l 1,25,-1
EndSplineSet
Substitution2: "Single Substitution lookup 82 subtable" ny.cvc.3
Substitution2: "Single Substitution lookup 71 subtable" ny.cvc.1
Substitution2: "Single Substitution lookup 64 subtable" ny.ccv.2
Substitution2: "Single Substitution lookup 60 subtable" ny.cvc.3
Substitution2: "Single Substitution lookup 56 subtable" ny.cvc.1
Substitution2: "Single Substitution lookup 54 subtable" ny.ccv.1
Substitution2: "Single Substitution lookup 31 subtable" ny.ccv.2
Substitution2: "Single Substitution lookup 18 subtable" ny.ccv.2
EndChar

StartChar: dy
Encoding: 1 60257 1
Width: 600
VWidth: 2494
Flags: W
HStem: 401 66<133 532> 601 66<133 466> 801 66<133 532>
VStem: 67 66<467 601 667 801>
CounterMasks: 1 e0
AnchorPoint: "Above" 0 0 basechar 0
LayerCount: 2
Back
SplineSet
433 634 m 29
 103 634 l 1029
499 834 m 29
 100 834 l 5
 100 434 l 5
 499 434 l 1029
EndSplineSet
Fore
SplineSet
532 834 m 1,0,-1
 532 801 l 1,1,-1
 499 801 l 1,2,-1
 133 801 l 1,3,-1
 133 667 l 1,4,-1
 433 667 l 1,5,-1
 466 667 l 1,6,-1
 466 634 l 1,7,-1
 466 601 l 1,8,-1
 433 601 l 1,9,-1
 133 601 l 1,10,-1
 133 467 l 1,11,-1
 499 467 l 1,12,-1
 532 467 l 1,13,-1
 532 434 l 1,14,-1
 532 401 l 1,15,-1
 499 401 l 1,16,-1
 100 401 l 2,17,18
 88 401 88 401 77.5 410.5 c 128,-1,19
 67 420 67 420 67 434 c 2,20,-1
 67 834 l 2,21,22
 67 846 67 846 76.5 856.5 c 128,-1,23
 86 867 86 867 100 867 c 2,24,-1
 499 867 l 1,25,-1
 532 867 l 1,26,-1
 532 834 l 1,0,-1
EndSplineSet
Substitution2: "Single Substitution lookup 82 subtable" dy.cvc.3
Substitution2: "Single Substitution lookup 71 subtable" dy.cvc.1
Substitution2: "Single Substitution lookup 64 subtable" dy.ccv.2
Substitution2: "Single Substitution lookup 60 subtable" dy.cvc.3
Substitution2: "Single Substitution lookup 56 subtable" dy.cvc.1
Substitution2: "Single Substitution lookup 54 subtable" dy.ccv.1
Substitution2: "Single Substitution lookup 36 subtable" dy.ccv.2
Substitution2: "Single Substitution lookup 23 subtable" dy.ccv.2
EndChar

StartChar: ty
Encoding: 2 60258 2
Width: 600
VWidth: 2494
Flags: W
HStem: 401 66<67 466> 601 66<134 466> 801 66<67 466>
VStem: 466 66<467 601 667 801>
CounterMasks: 1 e0
AnchorPoint: "Above" 0 0 basechar 0
LayerCount: 2
Back
SplineSet
167 634 m 29
 498 634 l 1029
100 834 m 29
 499 834 l 5
 499 434 l 5
 100 434 l 1029
EndSplineSet
Fore
SplineSet
67 834 m 1,0,-1
 67 867 l 1,1,-1
 100 867 l 1,2,-1
 499 867 l 2,3,4
 513 867 513 867 522.5 856.5 c 128,-1,5
 532 846 532 846 532 834 c 2,6,-1
 532 434 l 2,7,8
 532 420 532 420 521.5 410.5 c 128,-1,9
 511 401 511 401 499 401 c 2,10,-1
 100 401 l 1,11,-1
 67 401 l 1,12,-1
 67 434 l 1,13,-1
 67 467 l 1,14,-1
 100 467 l 1,15,-1
 466 467 l 1,16,-1
 466 601 l 1,17,-1
 167 601 l 1,18,-1
 134 601 l 1,19,-1
 134 634 l 1,20,-1
 134 667 l 1,21,-1
 167 667 l 1,22,-1
 466 667 l 1,23,-1
 466 801 l 1,24,-1
 100 801 l 1,25,-1
 67 801 l 1,26,-1
 67 834 l 1,0,-1
EndSplineSet
Substitution2: "Single Substitution lookup 82 subtable" ty.cvc.3
Substitution2: "Single Substitution lookup 71 subtable" ty.cvc.1
Substitution2: "Single Substitution lookup 64 subtable" ty.ccv.2
Substitution2: "Single Substitution lookup 60 subtable" ty.cvc.3
Substitution2: "Single Substitution lookup 56 subtable" ty.cvc.1
Substitution2: "Single Substitution lookup 54 subtable" ty.ccv.1
Substitution2: "Single Substitution lookup 28 subtable" ty.ccv.2
Substitution2: "Single Substitution lookup 15 subtable" ty.ccv.2
EndChar

StartChar: zy
Encoding: 3 60259 3
Width: 600
VWidth: 2494
Flags: W
HStem: 401 66<133 403.957> 601 66<133 426.962> 847 20G<67 133 545.437 586.865>
VStem: 67 66<467 601 667 867>
AnchorPoint: "Above" 0 0 basechar 0
LayerCount: 2
Back
SplineSet
454 634 m 29
 100 634 l 1029
100 834 m 29
 100 434 l 5
 433 434 l 5
 435 500 449.666666667 572 477 650 c 132
 504.333333333 728 534.333333333 788.666666667 567 832 c 1028
EndSplineSet
Fore
SplineSet
100 867 m 1,0,-1
 133 867 l 1,1,-1
 133 834 l 1,2,-1
 133 667 l 1,3,-1
 448.007310906 667 l 1,4,5
 489.864128949 784.497479383 489.864128949 784.497479383 540.648728188 851.864804904 c 2,6,-1
 560.513533092 878.216076716 l 1,7,-1
 586.864804904 858.351271812 l 1,8,-1
 613.216076716 838.486466908 l 1,9,-1
 593.351271812 812.135195096 l 2,10,11
 547.444049147 751.237858907 547.444049147 751.237858907 508.143173689 639.08658016 c 128,-1,12
 468.830334758 526.901161749 468.830334758 526.901161749 465.984858912 433.000458821 c 0,13,14
 465.59178951 420.029168562 465.59178951 420.029168562 455.924699701 410.514584281 c 128,-1,15
 446.257609891 401 446.257609891 401 433 401 c 2,16,-1
 100 401 l 2,17,18
 88 401 88 401 77.5 410.5 c 128,-1,19
 67 420 67 420 67 434 c 2,20,-1
 67 601 l 1,21,-1
 67 634 l 1,22,-1
 67 667 l 1,23,-1
 67 834 l 1,24,-1
 67 867 l 1,25,-1
 100 867 l 1,0,-1
133 601 m 1,26,-1
 133 467 l 1,27,-1
 401.881836621 467 l 1,28,29
 407.429307288 531.002738693 407.429307288 531.002738693 426.961974202 601 c 1,30,-1
 133 601 l 1,26,-1
EndSplineSet
Substitution2: "Single Substitution lookup 82 subtable" zy.cvc.3
Substitution2: "Single Substitution lookup 71 subtable" zy.cvc.1
Substitution2: "Single Substitution lookup 64 subtable" zy.ccv.2
Substitution2: "Single Substitution lookup 60 subtable" zy.cvc.3
Substitution2: "Single Substitution lookup 56 subtable" zy.cvc.1
Substitution2: "Single Substitution lookup 54 subtable" zy.ccv.1
Substitution2: "Single Substitution lookup 46 subtable" zy.ccv.2
EndChar

StartChar: sy
Encoding: 4 60260 4
Width: 600
VWidth: 2494
Flags: W
HStem: 401 21G<12.1352 53.5634 466 532> 601 66<172.038 466> 801 66<195.043 466>
VStem: 466 66<401 601 667 801>
AnchorPoint: "Above" 0 0 basechar 0
LayerCount: 2
Back
SplineSet
145 634 m 5
 499 634 l 1029
499 434 m 5
 499 834 l 5
 166 834 l 5
 164 768 149.333333333 696 122 618 c 132
 94.6666666667 540 64.6666666667 479.333333333 32 436 c 1028
EndSplineSet
Fore
SplineSet
499 401 m 1,0,-1
 466 401 l 1,1,-1
 466 434 l 1,2,-1
 466 601 l 1,3,-1
 150.992689094 601 l 1,4,5
 109.135871051 483.502520617 109.135871051 483.502520617 58.351271812 416.135195096 c 2,6,-1
 38.4864669076 389.783923284 l 1,7,-1
 12.1351950956 409.648728188 l 1,8,-1
 -14.2160767164 429.513533092 l 1,9,-1
 5.64872818801 455.864804904 l 2,10,11
 51.555950853 516.762141093 51.555950853 516.762141093 90.8568263113 628.91341984 c 128,-1,12
 130.169665242 741.098838251 130.169665242 741.098838251 133.015141088 834.999541179 c 0,13,14
 133.40821049 847.970831438 133.40821049 847.970831438 143.075300299 857.485415719 c 128,-1,15
 152.742390109 867 152.742390109 867 166 867 c 2,16,-1
 499 867 l 2,17,18
 511 867 511 867 521.5 857.5 c 128,-1,19
 532 848 532 848 532 834 c 2,20,-1
 532 667 l 1,21,-1
 532 634 l 1,22,-1
 532 601 l 1,23,-1
 532 434 l 1,24,-1
 532 401 l 1,25,-1
 499 401 l 1,0,-1
466 667 m 1,26,-1
 466 801 l 1,27,-1
 197.118163379 801 l 1,28,29
 191.570692712 736.997261307 191.570692712 736.997261307 172.038025798 667 c 1,30,-1
 466 667 l 1,26,-1
EndSplineSet
Substitution2: "Single Substitution lookup 82 subtable" sy.cvc.3
Substitution2: "Single Substitution lookup 71 subtable" sy.cvc.1
Substitution2: "Single Substitution lookup 64 subtable" sy.ccv.2
Substitution2: "Single Substitution lookup 60 subtable" sy.cvc.3
Substitution2: "Single Substitution lookup 56 subtable" sy.cvc.1
Substitution2: "Single Substitution lookup 54 subtable" sy.ccv.1
Substitution2: "Single Substitution lookup 41 subtable" sy.ccv.2
EndChar

StartChar: gy
Encoding: 5 60261 5
Width: 600
VWidth: 2494
Flags: W
HStem: 389.726 21G<485.242 524.758> 858.274 20G<485.242 524.758>
AnchorPoint: "Above" 0 0 basechar 0
LayerCount: 2
Back
SplineSet
500 834 m 5
 100 634 l 5
 500 434 l 1029
EndSplineSet
Fore
SplineSet
529.516097303 848.758048651 m 1,0,-1
 544.274145954 819.241951349 l 1,1,-1
 514.758048651 804.483902697 l 1,2,-1
 173.790243257 634 l 1,3,-1
 514.758048651 463.516097303 l 1,4,-1
 544.274145954 448.758048651 l 1,5,-1
 529.516097303 419.241951349 l 1,6,-1
 514.758048651 389.725854046 l 1,7,-1
 485.241951349 404.483902697 l 1,8,-1
 85.2419513485 604.483902697 l 2,9,10
 76.6751075826 608.76732458 76.6751075826 608.76732458 71.7327597887 616.971696184 c 0,11,12
 64.3916516976 629.158045927 64.3916516976 629.158045927 68.4544279397 643.155884824 c 128,-1,13
 72.5172041819 657.15372372 72.5172041819 657.15372372 85.2419513485 663.516097303 c 2,14,-1
 485.241951349 863.516097303 l 1,15,-1
 514.758048651 878.274145954 l 1,16,-1
 529.516097303 848.758048651 l 1,0,-1
EndSplineSet
Substitution2: "Single Substitution lookup 82 subtable" gy.cvc.3
Substitution2: "Single Substitution lookup 71 subtable" gy.cvc.1
Substitution2: "Single Substitution lookup 64 subtable" gy.ccv.2
Substitution2: "Single Substitution lookup 60 subtable" gy.cvc.3
Substitution2: "Single Substitution lookup 56 subtable" gy.cvc.1
Substitution2: "Single Substitution lookup 54 subtable" gy.ccv.1
Substitution2: "Single Substitution lookup 37 subtable" gy.ccv.2
Substitution2: "Single Substitution lookup 24 subtable" gy.ccv.2
EndChar

StartChar: jy
Encoding: 6 60262 6
Width: 600
VWidth: 2494
Flags: W
HStem: 401 21G<267 333> 534 66<67 262.062 337.833 532> 801 66<67 180.596 421.893 532>
VStem: 267 66<401 534>
AnchorPoint: "Above" 0 0 basechar 0
LayerCount: 2
Back
SplineSet
100 567 m 5
 499 567 l 1025
300 504 m 5
 300 434 l 1025
100 834 m 4
 234 834 300.666666667 724 300 504 c 1
 299.333333333 612.666666667 315.833333333 694.833333333 349.5 750.5 c 0
 383.166666667 806.166666667 433 834 499 834 c 1024
EndSplineSet
Fore
SplineSet
67 834 m 1,0,-1
 67 867 l 1,1,-1
 100 867 l 2,2,3
 170.434353256 867 170.434353256 867 221.804546577 830.237575748 c 128,-1,4
 273.174739897 793.475151497 273.174739897 793.475151497 300.171876079 724.810630483 c 1,5,6
 309.489059506 748.110599892 309.489059506 748.110599892 321.262585775 767.577717585 c 0,7,8
 381.392229631 867 381.392229631 867 499 867 c 2,9,-1
 532 867 l 1,10,-1
 532 834 l 1,11,-1
 532 801 l 1,12,-1
 499 801 l 2,13,14
 418.607770369 801 418.607770369 801 377.737414225 733.422282415 c 0,15,16
 351.362777903 689.812735231 351.362777903 689.812735231 340.483722582 619.474340061 c 0,17,18
 339.01455629 609.975463899 339.01455629 609.975463899 337.833023453 600 c 1,19,-1
 499 600 l 1,20,-1
 532 600 l 1,21,-1
 532 567 l 1,22,-1
 532 534 l 1,23,-1
 499 534 l 1,24,-1
 333.282611659 534 l 1,25,26
 333.058269417 525.304257623 333.058269417 525.304257623 333 516.333344641 c 2,27,-1
 333 510.353367417 l 2,28,29
 333.009268949 507.060250963 333.009268949 507.060250963 333 503.950414238 c 2,30,-1
 333 434 l 1,31,-1
 333 401 l 1,32,-1
 300 401 l 1,33,-1
 267 401 l 1,34,-1
 267 434 l 1,35,-1
 267 503.899689546 l 2,36,37
 266.972762409 508.420399251 266.972762409 508.420399251 266.98551883 513.584882879 c 0,38,39
 266.916121793 523.97937944 266.916121793 523.97937944 266.636932387 534 c 1,40,-1
 100 534 l 1,41,-1
 67 534 l 1,42,-1
 67 567 l 1,43,-1
 67 600 l 1,44,-1
 100 600 l 1,45,-1
 262.061814411 600 l 1,46,47
 260.868549067 610.193897281 260.868549067 610.193897281 259.387436544 619.874815214 c 0,48,49
 244.672407725 716.055884643 244.672407725 716.055884643 205.653096439 758.527942322 c 128,-1,50
 166.633785154 801 166.633785154 801 100 801 c 2,51,-1
 67 801 l 1,52,-1
 67 834 l 1,0,-1
EndSplineSet
Substitution2: "Single Substitution lookup 82 subtable" jy.cvc.3
Substitution2: "Single Substitution lookup 71 subtable" jy.cvc.1
Substitution2: "Single Substitution lookup 64 subtable" jy.ccv.2
Substitution2: "Single Substitution lookup 60 subtable" jy.cvc.3
Substitution2: "Single Substitution lookup 56 subtable" jy.cvc.1
Substitution2: "Single Substitution lookup 54 subtable" jy.ccv.1
Substitution2: "Single Substitution lookup 44 subtable" jy.ccv.2
EndChar

StartChar: xy
Encoding: 7 60263 7
Width: 600
VWidth: 2494
Flags: W
HStem: 391.593 21G<71.3476 108.61 487.538 525.892> 847 20G<267 333>
VStem: 267 66<576.507 867>
AnchorPoint: "Above" 0 0 basechar 0
LayerCount: 2
Back
SplineSet
300 690 m 5
 300 834 l 1025
499 434 m 4
 444.608723959 454.145182292 406.957682292 471.874348959 386.046875 487.1875 c 0
 328.682291667 529.197265625 300 596.801432292 300 690 c 1
 300 653.333333333 296 621 288 593 c 0
 280 565 270.333333333 542.5 259 525.5 c 0
 247.666666667 508.5 232.333333333 493.666666667 213 481 c 0
 193.666666667 468.333333333 176.166666667 459 160.5 453 c 0
 144.833333333 447 124.666666667 440.666666667 100 434 c 1024
EndSplineSet
Fore
SplineSet
333 690 m 2,0,1
 333 566.938061966 333 566.938061966 405.544488683 513.811606758 c 0,2,3
 433.19404768 493.56361407 433.19404768 493.56361407 510.461506445 464.945659954 c 2,4,-1
 541.4071664 453.484153509 l 1,5,-1
 518.484153509 391.5928336 l 1,6,-1
 487.538493555 403.054340046 l 2,7,8
 401.632124196 434.871932805 401.632124196 434.871932805 366.549261317 460.563393242 c 0,9,10
 326.160376933 490.141357 326.160376933 490.141357 301.716509607 534.609105103 c 1,11,12
 294.478912495 519.226772698 294.478912495 519.226772698 286.457659713 507.194893525 c 0,13,14
 265.720429427 476.089048096 265.720429427 476.089048096 231.084866491 453.396782724 c 0,15,16
 199.116432008 432.451946338 199.116432008 432.451946338 172.302359798 422.182727194 c 0,17,18
 147.232658262 412.581564904 147.232658262 412.581564904 108.60999783 402.14300803 c 2,19,-1
 76.7530058598 393.5330102 l 1,20,-1
 59.5330102004 457.24699414 l 1,21,-1
 91.3900021703 465.85699197 l 2,22,23
 126.767341738 475.418435096 126.767341738 475.418435096 148.697640202 483.817272806 c 0,24,25
 168.883567992 491.548053662 168.883567992 491.548053662 194.915133509 508.603217276 c 0,26,27
 218.279570573 523.910951904 218.279570573 523.910951904 231.542340287 543.805106475 c 0,28,29
 245.684891436 565.018933199 245.684891436 565.018933199 256.269709728 602.065797221 c 0,30,31
 267 639.621813173 267 639.621813173 267 690 c 2,32,-1
 267 834 l 1,33,-1
 267 867 l 1,34,-1
 300 867 l 1,35,-1
 333 867 l 1,36,-1
 333 834 l 1,37,-1
 333 690 l 2,0,1
EndSplineSet
Substitution2: "Single Substitution lookup 82 subtable" xy.cvc.3
Substitution2: "Single Substitution lookup 71 subtable" xy.cvc.1
Substitution2: "Single Substitution lookup 64 subtable" xy.ccv.2
Substitution2: "Single Substitution lookup 60 subtable" xy.cvc.3
Substitution2: "Single Substitution lookup 56 subtable" xy.cvc.1
Substitution2: "Single Substitution lookup 54 subtable" xy.ccv.1
EndChar

StartChar: iy
Encoding: 8 60264 8
Width: 600
VWidth: 2494
Flags: W
HStem: 401 21G<67 133> 801 66<133 533>
VStem: 67 66<401 801>
AnchorPoint: "Above" 0 0 basechar 0
LayerCount: 2
Back
SplineSet
100 434 m 29
 100 834 l 29
 500 834 l 1053
EndSplineSet
Fore
SplineSet
100 401 m 1,0,-1
 67 401 l 1,1,-1
 67 434 l 1,2,-1
 67 834 l 2,3,4
 67 848 67 848 77.5 857.5 c 128,-1,5
 88 867 88 867 100 867 c 2,6,-1
 500 867 l 1,7,-1
 533 867 l 1,8,-1
 533 834 l 1,9,-1
 533 801 l 1,10,-1
 500 801 l 1,11,-1
 133 801 l 1,12,-1
 133 434 l 1,13,-1
 133 401 l 1,14,-1
 100 401 l 1,0,-1
EndSplineSet
Substitution2: "Single Substitution lookup 82 subtable" iy.cvc.3
Substitution2: "Single Substitution lookup 71 subtable" iy.cvc.1
Substitution2: "Single Substitution lookup 64 subtable" iy.ccv.2
Substitution2: "Single Substitution lookup 60 subtable" iy.cvc.3
Substitution2: "Single Substitution lookup 56 subtable" iy.cvc.1
Substitution2: "Single Substitution lookup 54 subtable" iy.ccv.1
EndChar

StartChar: ry
Encoding: 9 60265 9
Width: 600
VWidth: 2494
Flags: W
AnchorPoint: "Above" 0 0 basechar 0
LayerCount: 2
Back
SplineSet
100 434 m 29
 499 834 l 1025
100 834 m 29
 499 434 l 1025
EndSplineSet
Fore
SplineSet
76.6946991343 857.363710141 m 1,0,-1
 100.058409275 880.669011007 l 1,1,-1
 123.363710141 857.305300866 l 1,2,-1
 299.5 680.727566672 l 1,3,-1
 475.636289859 857.305300866 l 1,4,-1
 498.941590725 880.669011007 l 1,5,-1
 522.305300866 857.363710141 l 1,6,-1
 545.669011007 834.058409275 l 1,7,-1
 522.363710141 810.694699134 l 1,8,-1
 346.110747755 634 l 1,9,-1
 522.363710141 457.305300866 l 1,10,-1
 545.669011007 433.941590725 l 1,11,-1
 522.305300866 410.636289859 l 1,12,-1
 498.941590725 387.330988993 l 1,13,-1
 475.636289859 410.694699134 l 1,14,-1
 299.5 587.272433328 l 1,15,-1
 123.363710141 410.694699134 l 1,16,-1
 100.058409275 387.330988993 l 1,17,-1
 76.6946991343 410.636289859 l 1,18,-1
 53.3309889932 433.941590725 l 1,19,-1
 76.6362898589 457.305300866 l 1,20,-1
 252.889252245 634 l 1,21,-1
 76.6362898589 810.694699134 l 1,22,-1
 53.3309889932 834.058409275 l 1,23,-1
 76.6946991343 857.363710141 l 1,0,-1
EndSplineSet
Substitution2: "Single Substitution lookup 82 subtable" ry.cvc.3
Substitution2: "Single Substitution lookup 71 subtable" ry.cvc.1
Substitution2: "Single Substitution lookup 64 subtable" ry.ccv.2
Substitution2: "Single Substitution lookup 60 subtable" ry.cvc.3
Substitution2: "Single Substitution lookup 56 subtable" ry.cvc.1
Substitution2: "Single Substitution lookup 54 subtable" ry.ccv.1
Substitution2: "Single Substitution lookup 52 subtable" ry.ccv.2
Substitution2: "Single Substitution lookup 50 subtable" ry.ccv.2
Substitution2: "Single Substitution lookup 48 subtable" ry.ccv.2
Substitution2: "Single Substitution lookup 45 subtable" ry.ccv.2
Substitution2: "Single Substitution lookup 43 subtable" ry.ccv.2
Substitution2: "Single Substitution lookup 40 subtable" ry.ccv.2
Substitution2: "Single Substitution lookup 33 subtable" ry.ccv.2
Substitution2: "Single Substitution lookup 20 subtable" ry.ccv.2
Substitution2: "Single Substitution lookup 12 subtable" ry.ccv.2
Substitution2: "Single Substitution lookup 10 subtable" ry.ccv.2
Substitution2: "Single Substitution lookup 8 subtable" ry.ccv.2
Substitution2: "Single Substitution lookup 6 subtable" ry.ccv.2
EndChar

StartChar: my
Encoding: 16 60272 16
Width: 600
VWidth: 2494
Flags: W
HStem: 401 66<133 466> 801 66<133 466>
VStem: 67 66<467 801> 466 66<467 801>
AnchorPoint: "Above" 0 0 basechar 0
LayerCount: 2
Back
SplineSet
100 834 m 29
 499 834 l 1
 499 434 l 1
 100 434 l 1
 100 834 l 29
EndSplineSet
Fore
SplineSet
100 867 m 2,0,-1
 499 867 l 2,1,2
 513 867 513 867 522.5 856.5 c 128,-1,3
 532 846 532 846 532 834 c 2,4,-1
 532 434 l 2,5,6
 532 420 532 420 521.5 410.5 c 128,-1,7
 511 401 511 401 499 401 c 2,8,-1
 100 401 l 2,9,10
 86 401 86 401 76.5 411.5 c 128,-1,11
 67 422 67 422 67 434 c 2,12,-1
 67 834 l 2,13,14
 67 848 67 848 77.5 857.5 c 128,-1,15
 88 867 88 867 100 867 c 2,0,-1
133 801 m 1,16,-1
 133 467 l 1,17,-1
 466 467 l 1,18,-1
 466 801 l 1,19,-1
 133 801 l 1,16,-1
EndSplineSet
Substitution2: "Single Substitution lookup 82 subtable" my.cvc.3
Substitution2: "Single Substitution lookup 71 subtable" my.cvc.1
Substitution2: "Single Substitution lookup 64 subtable" my.ccv.2
Substitution2: "Single Substitution lookup 60 subtable" my.cvc.3
Substitution2: "Single Substitution lookup 56 subtable" my.cvc.1
Substitution2: "Single Substitution lookup 54 subtable" my.ccv.1
Substitution2: "Single Substitution lookup 38 subtable" my.ccv.2
Substitution2: "Single Substitution lookup 30 subtable" my.ccv.2
Substitution2: "Single Substitution lookup 25 subtable" my.ccv.2
Substitution2: "Single Substitution lookup 17 subtable" my.ccv.2
EndChar

StartChar: by
Encoding: 17 60273 17
Width: 600
VWidth: 2494
Flags: W
HStem: 401 66<133 532> 801 66<133 532>
VStem: 67 66<467 801>
AnchorPoint: "Above" 0 0 basechar 0
LayerCount: 2
Back
SplineSet
499 834 m 29
 100 834 l 1
 100 434 l 1
 499 434 l 1025
EndSplineSet
Fore
SplineSet
532 834 m 1,0,-1
 532 801 l 1,1,-1
 499 801 l 1,2,-1
 133 801 l 1,3,-1
 133 467 l 1,4,-1
 499 467 l 1,5,-1
 532 467 l 1,6,-1
 532 434 l 1,7,-1
 532 401 l 1,8,-1
 499 401 l 1,9,-1
 100 401 l 2,10,11
 88 401 88 401 77.5 410.5 c 128,-1,12
 67 420 67 420 67 434 c 2,13,-1
 67 834 l 2,14,15
 67 846 67 846 76.5 856.5 c 128,-1,16
 86 867 86 867 100 867 c 2,17,-1
 499 867 l 1,18,-1
 532 867 l 1,19,-1
 532 834 l 1,0,-1
EndSplineSet
Substitution2: "Single Substitution lookup 82 subtable" by.cvc.3
Substitution2: "Single Substitution lookup 71 subtable" by.cvc.1
Substitution2: "Single Substitution lookup 64 subtable" by.ccv.2
Substitution2: "Single Substitution lookup 60 subtable" by.cvc.3
Substitution2: "Single Substitution lookup 56 subtable" by.cvc.1
Substitution2: "Single Substitution lookup 54 subtable" by.ccv.1
Substitution2: "Single Substitution lookup 34 subtable" by.ccv.2
Substitution2: "Single Substitution lookup 21 subtable" by.ccv.2
EndChar

StartChar: py
Encoding: 18 60274 18
Width: 600
VWidth: 2494
Flags: W
HStem: 401 66<67 466> 801 66<67 466>
VStem: 466 66<467 801>
AnchorPoint: "Above" 0 0 basechar 0
LayerCount: 2
Back
SplineSet
100 834 m 29
 499 834 l 5
 499 434 l 5
 100 434 l 1029
EndSplineSet
Fore
SplineSet
67 834 m 1,0,-1
 67 867 l 1,1,-1
 100 867 l 1,2,-1
 499 867 l 2,3,4
 513 867 513 867 522.5 856.5 c 128,-1,5
 532 846 532 846 532 834 c 2,6,-1
 532 434 l 2,7,8
 532 420 532 420 521.5 410.5 c 128,-1,9
 511 401 511 401 499 401 c 2,10,-1
 100 401 l 1,11,-1
 67 401 l 1,12,-1
 67 434 l 1,13,-1
 67 467 l 1,14,-1
 100 467 l 1,15,-1
 466 467 l 1,16,-1
 466 801 l 1,17,-1
 100 801 l 1,18,-1
 67 801 l 1,19,-1
 67 834 l 1,0,-1
EndSplineSet
Substitution2: "Single Substitution lookup 82 subtable" py.cvc.3
Substitution2: "Single Substitution lookup 71 subtable" py.cvc.1
Substitution2: "Single Substitution lookup 64 subtable" py.ccv.2
Substitution2: "Single Substitution lookup 60 subtable" py.cvc.3
Substitution2: "Single Substitution lookup 56 subtable" py.cvc.1
Substitution2: "Single Substitution lookup 54 subtable" py.ccv.1
Substitution2: "Single Substitution lookup 26 subtable" py.ccv.2
Substitution2: "Single Substitution lookup 13 subtable" py.ccv.2
EndChar

StartChar: vy
Encoding: 19 60275 19
Width: 600
VWidth: 2494
Flags: W
HStem: 401 66<133 403.943> 847 20G<67 133 545.437 586.865>
VStem: 67 66<467 867>
AnchorPoint: "Above" 0 0 basechar 0
LayerCount: 2
Back
SplineSet
100 834 m 29
 100 434 l 5
 433 434 l 5
 435 500 449.666666667 572 477 650 c 132
 504.333333333 728 534.333333333 788.666666667 567 832 c 1028
EndSplineSet
Fore
SplineSet
100 867 m 1,0,-1
 133 867 l 1,1,-1
 133 834 l 1,2,-1
 133 467 l 1,3,-1
 401.881836621 467 l 1,4,5
 409.761474422 557.909610788 409.761474422 557.909610788 445.856826311 660.91341984 c 0,6,7
 488.555950853 782.762141093 488.555950853 782.762141093 540.648728188 851.864804904 c 2,8,-1
 560.513533092 878.216076716 l 1,9,-1
 586.864804904 858.351271812 l 1,10,-1
 613.216076716 838.486466908 l 1,11,-1
 593.351271812 812.135195096 l 2,12,13
 547.444049147 751.237858907 547.444049147 751.237858907 508.143173689 639.08658016 c 128,-1,14
 468.830334758 526.901161749 468.830334758 526.901161749 465.984858912 433.000458821 c 0,15,16
 465.59178951 420.029168562 465.59178951 420.029168562 455.924699701 410.514584281 c 128,-1,17
 446.257609891 401 446.257609891 401 433 401 c 2,18,-1
 100 401 l 2,19,20
 88 401 88 401 77.5 410.5 c 128,-1,21
 67 420 67 420 67 434 c 2,22,-1
 67 834 l 1,23,-1
 67 867 l 1,24,-1
 100 867 l 1,0,-1
EndSplineSet
Substitution2: "Single Substitution lookup 82 subtable" vy.cvc.3
Substitution2: "Single Substitution lookup 71 subtable" vy.cvc.1
Substitution2: "Single Substitution lookup 64 subtable" vy.ccv.2
Substitution2: "Single Substitution lookup 60 subtable" vy.cvc.3
Substitution2: "Single Substitution lookup 56 subtable" vy.cvc.1
Substitution2: "Single Substitution lookup 54 subtable" vy.ccv.1
Substitution2: "Single Substitution lookup 35 subtable" vy.ccv.2
Substitution2: "Single Substitution lookup 22 subtable" vy.ccv.2
EndChar

StartChar: fy
Encoding: 20 60276 20
Width: 600
VWidth: 2494
Flags: W
HStem: 401 21G<12.1352 53.5634 466 532> 801 66<195.057 466>
VStem: 466 66<401 801>
AnchorPoint: "Above" 0 0 basechar 0
LayerCount: 2
Back
SplineSet
499 434 m 5
 499 834 l 1
 166 834 l 1
 164 768 149.333333333 696 122 618 c 0
 94.6666666667 540 64.6666666667 479.333333333 32 436 c 1024
EndSplineSet
Fore
SplineSet
499 401 m 1,0,-1
 466 401 l 1,1,-1
 466 434 l 1,2,-1
 466 801 l 1,3,-1
 197.118163379 801 l 1,4,5
 189.238525578 710.090389212 189.238525578 710.090389212 153.143173689 607.08658016 c 0,6,7
 110.444049147 485.237858907 110.444049147 485.237858907 58.351271812 416.135195096 c 2,8,-1
 38.4864669076 389.783923284 l 1,9,-1
 12.1351950956 409.648728188 l 1,10,-1
 -14.2160767164 429.513533092 l 1,11,-1
 5.64872818801 455.864804904 l 2,12,13
 51.555950853 516.762141093 51.555950853 516.762141093 90.8568263113 628.91341984 c 128,-1,14
 130.169665242 741.098838251 130.169665242 741.098838251 133.015141088 834.999541179 c 0,15,16
 133.40821049 847.970831438 133.40821049 847.970831438 143.075300299 857.485415719 c 128,-1,17
 152.742390109 867 152.742390109 867 166 867 c 2,18,-1
 499 867 l 2,19,20
 511 867 511 867 521.5 857.5 c 128,-1,21
 532 848 532 848 532 834 c 2,22,-1
 532 434 l 1,23,-1
 532 401 l 1,24,-1
 499 401 l 1,0,-1
EndSplineSet
Substitution2: "Single Substitution lookup 82 subtable" fy.cvc.3
Substitution2: "Single Substitution lookup 71 subtable" fy.cvc.1
Substitution2: "Single Substitution lookup 64 subtable" fy.ccv.2
Substitution2: "Single Substitution lookup 60 subtable" fy.cvc.3
Substitution2: "Single Substitution lookup 56 subtable" fy.cvc.1
Substitution2: "Single Substitution lookup 54 subtable" fy.ccv.1
Substitution2: "Single Substitution lookup 27 subtable" fy.ccv.2
Substitution2: "Single Substitution lookup 14 subtable" fy.ccv.2
EndChar

StartChar: ky
Encoding: 21 60277 21
Width: 600
VWidth: 2494
Flags: W
HStem: 389.726 21G<75.242 114.758> 858.274 20G<75.242 114.758>
AnchorPoint: "Above" 0 0 basechar 0
LayerCount: 2
Back
SplineSet
100 434 m 5
 500 634 l 5
 100 834 l 1029
EndSplineSet
Fore
SplineSet
70.483902697 419.241951349 m 1,0,-1
 55.7258540455 448.758048651 l 1,1,-1
 85.2419513485 463.516097303 l 1,2,-1
 426.209756743 634 l 1,3,-1
 85.2419513485 804.483902697 l 1,4,-1
 55.7258540455 819.241951349 l 1,5,-1
 70.483902697 848.758048651 l 1,6,-1
 85.2419513485 878.274145954 l 1,7,-1
 114.758048651 863.516097303 l 1,8,-1
 514.758048651 663.516097303 l 2,9,10
 523.324892417 659.23267542 523.324892417 659.23267542 528.267240211 651.028303816 c 0,11,12
 535.608348302 638.841954073 535.608348302 638.841954073 531.54557206 624.844115176 c 128,-1,13
 527.482795818 610.84627628 527.482795818 610.84627628 514.758048651 604.483902697 c 2,14,-1
 114.758048651 404.483902697 l 1,15,-1
 85.2419513485 389.725854046 l 1,16,-1
 70.483902697 419.241951349 l 1,0,-1
EndSplineSet
Substitution2: "Single Substitution lookup 82 subtable" ky.cvc.3
Substitution2: "Single Substitution lookup 71 subtable" ky.cvc.1
Substitution2: "Single Substitution lookup 64 subtable" ky.ccv.2
Substitution2: "Single Substitution lookup 60 subtable" ky.cvc.3
Substitution2: "Single Substitution lookup 56 subtable" ky.cvc.1
Substitution2: "Single Substitution lookup 54 subtable" ky.ccv.1
Substitution2: "Single Substitution lookup 29 subtable" ky.ccv.2
Substitution2: "Single Substitution lookup 16 subtable" ky.ccv.2
EndChar

StartChar: cy
Encoding: 22 60278 22
Width: 600
VWidth: 2494
Flags: W
HStem: 401 66<67 177.107 418.404 532> 601 66<67 248.581 349.098 532> 847 20G<266 332>
VStem: 266 66<668.245 867>
AnchorPoint: "Above" 0 0 basechar 0
LayerCount: 2
Back
SplineSet
499 634 m 5
 100 634 l 1025
299 764 m 5
 299 834 l 1025
499 434 m 4
 365 434 298.333333333 544 299 764 c 1
 299.666666667 655.333333333 283.166666667 573.166666667 249.5 517.5 c 0
 215.833333333 461.833333333 166 434 100 434 c 1024
EndSplineSet
Fore
SplineSet
532 434 m 1,0,-1
 532 401 l 1,1,-1
 499 401 l 2,2,3
 428.565646744 401 428.565646744 401 377.195453423 437.762424252 c 128,-1,4
 325.825260103 474.524848503 325.825260103 474.524848503 298.828123921 543.189369517 c 1,5,6
 289.510940494 519.889400108 289.510940494 519.889400108 277.737414225 500.422282415 c 0,7,8
 217.607770369 401 217.607770369 401 100 401 c 2,9,-1
 67 401 l 1,10,-1
 67 434 l 1,11,-1
 67 467 l 1,12,-1
 100 467 l 2,13,14
 180.392229631 467 180.392229631 467 221.262585775 534.577717585 c 0,15,16
 238.067139647 562.363465075 238.067139647 562.363465075 248.581139742 601 c 1,17,-1
 100 601 l 1,18,-1
 67 601 l 1,19,-1
 67 634 l 1,20,-1
 67 667 l 1,21,-1
 100 667 l 1,22,-1
 261.047666129 667 l 1,23,24
 265.70159147 705.724940236 265.70159147 705.724940236 266 751.666655359 c 2,25,-1
 266 757.646632583 l 2,26,27
 265.990731051 760.939749037 265.990731051 760.939749037 266 764.049585762 c 2,28,-1
 266 834 l 1,29,-1
 266 867 l 1,30,-1
 299 867 l 1,31,-1
 332 867 l 1,32,-1
 332 834 l 1,33,-1
 332 764.100310454 l 2,34,35
 332.027237591 759.579600749 332.027237591 759.579600749 332.01448117 754.415117121 c 0,36,37
 332.332495863 706.781921865 332.332495863 706.781921865 337.056081461 667 c 1,38,-1
 499 667 l 1,39,-1
 532 667 l 1,40,-1
 532 634 l 1,41,-1
 532 601 l 1,42,-1
 499 601 l 1,43,-1
 349.097894073 601 l 1,44,45
 364.648889097 540.709506146 364.648889097 540.709506146 393.346903561 509.472057678 c 0,46,47
 432.366214846 467 432.366214846 467 499 467 c 2,48,-1
 532 467 l 1,49,-1
 532 434 l 1,0,-1
EndSplineSet
Substitution2: "Single Substitution lookup 82 subtable" cy.cvc.3
Substitution2: "Single Substitution lookup 71 subtable" cy.cvc.1
Substitution2: "Single Substitution lookup 64 subtable" cy.ccv.2
Substitution2: "Single Substitution lookup 60 subtable" cy.cvc.3
Substitution2: "Single Substitution lookup 56 subtable" cy.cvc.1
Substitution2: "Single Substitution lookup 54 subtable" cy.ccv.1
Substitution2: "Single Substitution lookup 39 subtable" cy.ccv.2
EndChar

StartChar: yhy
Encoding: 23 60279 23
Width: 600
VWidth: 2494
Flags: W
HStem: 401 21G<466 532> 847 20G<67 133>
VStem: 67 66<513.81 867> 466 66<401 754.19>
AnchorPoint: "Above" 0 0 basechar 0
LayerCount: 2
Back
SplineSet
100 834 m 29
 100 434 l 1
 499 834 l 1
 499 434 l 1025
EndSplineSet
Fore
SplineSet
100 867 m 1,0,-1
 133 867 l 1,1,-1
 133 834 l 1,2,-1
 133 513.810273438 l 1,3,-1
 475.636289859 857.305300866 l 2,4,5
 485.683487431 867.377679384 485.683487431 867.377679384 500.248470815 866.823690593 c 128,-1,6
 514.813454199 866.269701802 514.813454199 866.269701802 524.066510691 855.463225335 c 0,7,8
 532 846.197847393 532 846.197847393 532 834 c 2,9,-1
 532 434 l 1,10,-1
 532 401 l 1,11,-1
 499 401 l 1,12,-1
 466 401 l 1,13,-1
 466 434 l 1,14,-1
 466 754.189726562 l 1,15,-1
 123.363710141 410.694699134 l 2,16,17
 114.74933125 402.058730321 114.74933125 402.058730321 102.58908382 401.101722766 c 0,18,19
 88.4062379059 399.985537362 88.4062379059 399.985537362 77.703118953 409.879418766 c 128,-1,20
 67 419.773300169 67 419.773300169 67 434 c 2,21,-1
 67 834 l 1,22,-1
 67 867 l 1,23,-1
 100 867 l 1,0,-1
EndSplineSet
Substitution2: "Single Substitution lookup 82 subtable" yhy.cvc.3
Substitution2: "Single Substitution lookup 71 subtable" yhy.cvc.1
Substitution2: "Single Substitution lookup 64 subtable" yhy.ccv.2
Substitution2: "Single Substitution lookup 60 subtable" yhy.cvc.3
Substitution2: "Single Substitution lookup 56 subtable" yhy.cvc.1
Substitution2: "Single Substitution lookup 54 subtable" yhy.ccv.1
EndChar

StartChar: uy
Encoding: 24 60280 24
Width: 600
VWidth: 2494
Flags: W
HStem: 401 66<67 467> 847 20G<467 533>
VStem: 467 66<467 867>
AnchorPoint: "Above" 0 0 basechar 0
LayerCount: 2
Back
SplineSet
100 434 m 29
 500 434 l 29
 500 834 l 1053
EndSplineSet
Fore
SplineSet
67 434 m 1,0,-1
 67 467 l 1,1,-1
 100 467 l 1,2,-1
 467 467 l 1,3,-1
 467 834 l 1,4,-1
 467 867 l 1,5,-1
 500 867 l 1,6,-1
 533 867 l 1,7,-1
 533 834 l 1,8,-1
 533 434 l 2,9,10
 533 422 533 422 523.5 411.5 c 128,-1,11
 514 401 514 401 500 401 c 2,12,-1
 100 401 l 1,13,-1
 67 401 l 1,14,-1
 67 434 l 1,0,-1
EndSplineSet
Substitution2: "Single Substitution lookup 82 subtable" uy.cvc.3
Substitution2: "Single Substitution lookup 71 subtable" uy.cvc.1
Substitution2: "Single Substitution lookup 64 subtable" uy.ccv.2
Substitution2: "Single Substitution lookup 60 subtable" uy.cvc.3
Substitution2: "Single Substitution lookup 56 subtable" uy.cvc.1
Substitution2: "Single Substitution lookup 54 subtable" uy.ccv.1
EndChar

StartChar: ly
Encoding: 25 60281 25
Width: 600
VWidth: 2494
Flags: W
HStem: 401 66<133 532> 601 66<133 466> 801 66<67 466>
VStem: 67 66<467 601> 466 66<667 801>
CounterMasks: 1 e0
AnchorPoint: "Above" 0 0 basechar 0
LayerCount: 2
Back
SplineSet
100 834 m 29
 499 834 l 5
 499 634 l 5
 100 634 l 5
 100 434 l 5
 499 434 l 1029
EndSplineSet
Fore
SplineSet
67 834 m 1,0,-1
 67 867 l 1,1,-1
 100 867 l 1,2,-1
 499 867 l 2,3,4
 513 867 513 867 522.5 856.5 c 128,-1,5
 532 846 532 846 532 834 c 2,6,-1
 532 634 l 2,7,8
 532 620 532 620 521.5 610.5 c 128,-1,9
 511 601 511 601 499 601 c 2,10,-1
 133 601 l 1,11,-1
 133 467 l 1,12,-1
 499 467 l 1,13,-1
 532 467 l 1,14,-1
 532 434 l 1,15,-1
 532 401 l 1,16,-1
 499 401 l 1,17,-1
 100 401 l 2,18,19
 88 401 88 401 77.5 410.5 c 128,-1,20
 67 420 67 420 67 434 c 2,21,-1
 67 634 l 2,22,23
 67 646 67 646 76.5 656.5 c 128,-1,24
 86 667 86 667 100 667 c 2,25,-1
 466 667 l 1,26,-1
 466 801 l 1,27,-1
 100 801 l 1,28,-1
 67 801 l 1,29,-1
 67 834 l 1,0,-1
EndSplineSet
Substitution2: "Single Substitution lookup 82 subtable" ly.cvc.3
Substitution2: "Single Substitution lookup 71 subtable" ly.cvc.1
Substitution2: "Single Substitution lookup 64 subtable" ly.ccv.2
Substitution2: "Single Substitution lookup 60 subtable" ly.cvc.3
Substitution2: "Single Substitution lookup 56 subtable" ly.cvc.1
Substitution2: "Single Substitution lookup 54 subtable" ly.ccv.1
Substitution2: "Single Substitution lookup 51 subtable" ly.ccv.2
Substitution2: "Single Substitution lookup 49 subtable" ly.ccv.2
Substitution2: "Single Substitution lookup 47 subtable" ly.ccv.2
Substitution2: "Single Substitution lookup 42 subtable" ly.ccv.2
Substitution2: "Single Substitution lookup 32 subtable" ly.ccv.2
Substitution2: "Single Substitution lookup 19 subtable" ly.ccv.2
Substitution2: "Single Substitution lookup 11 subtable" ly.ccv.2
Substitution2: "Single Substitution lookup 9 subtable" ly.ccv.2
Substitution2: "Single Substitution lookup 7 subtable" ly.ccv.2
Substitution2: "Single Substitution lookup 5 subtable" ly.ccv.2
EndChar

StartChar: denpabu
Encoding: 31 60287 31
Width: 600
VWidth: 297
Flags: W
HStem: 389 66<219.36 380.332> 813 66<219.36 380.332>
VStem: 55 66<553.36 714.64> 477 66<553.344 714.656>
AnchorPoint: "Above" 0 0 basechar 0
LayerCount: 2
Back
SplineSet
88 634 m 132
 88 689.333333333 109.5 738.5 152.5 781.5 c 132
 195.5 824.5 244.666666667 846 300 846 c 132
 355.333333333 846 404.166666667 824.5 446.5 781.5 c 132
 488.833333333 738.5 510 689.333333333 510 634 c 132
 510 578.666666667 488.833333333 529.5 446.5 486.5 c 132
 404.166666667 443.5 355.333333333 422 300 422 c 132
 244.666666667 422 195.5 443.5 152.5 486.5 c 132
 109.5 529.5 88 578.666666667 88 634 c 132
EndSplineSet
Fore
SplineSet
121 634 m 128,-1,1
 121 564.669047558 121 564.669047558 175.834523779 509.834523779 c 128,-1,2
 230.669047558 455 230.669047558 455 300 455 c 128,-1,3
 369.179686933 455 369.179686933 455 422.983892898 509.651516295 c 0,4,5
 477 564.518270753 477 564.518270753 477 634 c 128,-1,6
 477 703.481729247 477 703.481729247 422.983892898 758.348483705 c 0,7,8
 369.179686933 813 369.179686933 813 300 813 c 128,-1,9
 230.669047558 813 230.669047558 813 175.834523779 758.165476221 c 128,-1,0
 121 703.330952442 121 703.330952442 121 634 c 128,-1,1
55 634 m 128,-1,11
 55 730.669047558 55 730.669047558 129.165476221 804.834523779 c 128,-1,12
 203.330952442 879 203.330952442 879 300 879 c 128,-1,13
 396.820313067 879 396.820313067 879 470.016107102 804.651516295 c 0,14,15
 543 730.518270753 543 730.518270753 543 634 c 128,-1,16
 543 537.481729247 543 537.481729247 470.016107102 463.348483705 c 0,17,18
 396.820313067 389 396.820313067 389 300 389 c 128,-1,19
 203.330952442 389 203.330952442 389 129.165476221 463.165476221 c 128,-1,10
 55 537.330952442 55 537.330952442 55 634 c 128,-1,11
EndSplineSet
Substitution2: "Single Substitution lookup 77 subtable" denpabu.cvc.1
Substitution2: "Single Substitution lookup 75 subtable" denpabu.cvc.3
Substitution2: "Single Substitution lookup 66 subtable" denpabu.ccv.1
EndChar

StartChar: ebu.cv
Encoding: 42 -1 32
Width: 600
VWidth: 230
Flags: W
HStem: -133 21G<67 133> 67 66<133 533> 313 20G<67 133>
VStem: 67 66<-133 67 133 333>
AnchorPoint: "Above" 0 0 mark 0
LayerCount: 2
Back
SplineSet
100 300 m 29
 100 -100 l 1053
500 100 m 29
 100 100 l 1029
EndSplineSet
Fore
SplineSet
533 100 m 1,0,-1
 533 67 l 1,1,-1
 500 67 l 1,2,-1
 133 67 l 1,3,-1
 133 -100 l 1,4,-1
 133 -133 l 1,5,-1
 100 -133 l 1,6,-1
 67 -133 l 1,7,-1
 67 -100 l 1,8,-1
 67 67 l 1,9,-1
 67 100 l 1,10,-1
 67 133 l 1,11,-1
 67 300 l 1,12,-1
 67 333 l 1,13,-1
 100 333 l 1,14,-1
 133 333 l 1,15,-1
 133 300 l 1,16,-1
 133 133 l 1,17,-1
 500 133 l 1,18,-1
 533 133 l 1,19,-1
 533 100 l 1,0,-1
EndSplineSet
Substitution2: "Single Substitution lookup 69 subtable" ebu.ccv
Substitution2: "Single Substitution lookup 73 subtable" ebu.cvc
EndChar

StartChar: obu.cv
Encoding: 43 -1 33
Width: 600
VWidth: 230
Flags: W
HStem: -133 21G<467 533> 67 66<67 467> 313 20G<467 533>
VStem: 467 66<-133 67 133 333>
AnchorPoint: "Above" 0 0 mark 0
LayerCount: 2
Back
SplineSet
100 100 m 29
 500 100 l 1053
500 300 m 29
 500 -100 l 1053
EndSplineSet
Fore
SplineSet
500 333 m 1,0,-1
 533 333 l 1,1,-1
 533 300 l 1,2,-1
 533 133 l 1,3,-1
 533 100 l 1,4,-1
 533 67 l 1,5,-1
 533 -100 l 1,6,-1
 533 -133 l 1,7,-1
 500 -133 l 1,8,-1
 467 -133 l 1,9,-1
 467 -100 l 1,10,-1
 467 67 l 1,11,-1
 100 67 l 1,12,-1
 67 67 l 1,13,-1
 67 100 l 1,14,-1
 67 133 l 1,15,-1
 100 133 l 1,16,-1
 467 133 l 1,17,-1
 467 300 l 1,18,-1
 467 333 l 1,19,-1
 500 333 l 1,0,-1
EndSplineSet
Substitution2: "Single Substitution lookup 73 subtable" obu.cvc
Substitution2: "Single Substitution lookup 69 subtable" obu.ccv
EndChar

StartChar: ibu.cv
Encoding: 44 -1 34
Width: 600
VWidth: 230
Flags: W
HStem: -133 21G<67 133> 267 66<133 533>
VStem: 67 66<-133 267>
AnchorPoint: "Above" 0 0 mark 0
LayerCount: 2
Back
SplineSet
500 300 m 29
 100 300 l 29
 100 -100 l 1053
EndSplineSet
Fore
SplineSet
533 300 m 1,0,-1
 533 267 l 1,1,-1
 500 267 l 1,2,-1
 133 267 l 1,3,-1
 133 -100 l 1,4,-1
 133 -133 l 1,5,-1
 100 -133 l 1,6,-1
 67 -133 l 1,7,-1
 67 -100 l 1,8,-1
 67 300 l 2,9,10
 67 312 67 312 76.5 322.5 c 128,-1,11
 86 333 86 333 100 333 c 2,12,-1
 500 333 l 1,13,-1
 533 333 l 1,14,-1
 533 300 l 1,0,-1
EndSplineSet
Substitution2: "Single Substitution lookup 73 subtable" ibu.cvc
Substitution2: "Single Substitution lookup 69 subtable" ibu.ccv
EndChar

StartChar: zy.cvc.1
Encoding: 35 -1 42
Width: 1133
VWidth: 230
Flags: W
HStem: 401 66<133 467> 601 66<133 467> 847 20G<67 133 467 533>
VStem: 67 66<467 601 667 867> 467 66<467 601 667 867>
AnchorPoint: "Above" 0 0 basechar 0
LayerCount: 2
Back
SplineSet
493 634 m 29
 100 634 l 1029
100 834 m 29
 100 434 l 13
 500 434 l 29
 500 834 l 1053
EndSplineSet
Fore
SplineSet
100 867 m 1,0,-1
 133 867 l 1,1,-1
 133 834 l 1,2,-1
 133 667 l 1,3,-1
 467 667 l 1,4,-1
 467 834 l 1,5,-1
 467 867 l 1,6,-1
 500 867 l 1,7,-1
 533 867 l 1,8,-1
 533 834 l 1,9,-1
 533 434 l 2,10,11
 533 422 533 422 523.5 411.5 c 128,-1,12
 514 401 514 401 500 401 c 2,13,-1
 100 401 l 2,14,15
 88 401 88 401 77.5 410.5 c 128,-1,16
 67 420 67 420 67 434 c 2,17,-1
 67 601 l 1,18,-1
 67 634 l 1,19,-1
 67 667 l 1,20,-1
 67 834 l 1,21,-1
 67 867 l 1,22,-1
 100 867 l 1,0,-1
133 601 m 1,23,-1
 133 467 l 1,24,-1
 467 467 l 1,25,-1
 467 601 l 1,26,-1
 133 601 l 1,23,-1
EndSplineSet
EndChar

StartChar: vy.cvc.1
Encoding: 51 -1 52
Width: 1133
VWidth: 230
Flags: W
HStem: 401 66<133 467> 847 20G<67 133 467 533>
VStem: 67 66<467 867> 467 66<467 867>
AnchorPoint: "Above" 0 0 basechar 0
LayerCount: 2
Back
SplineSet
100 834 m 29
 100 434 l 13
 500 434 l 29
 500 834 l 1053
EndSplineSet
Fore
SplineSet
100 867 m 1,0,-1
 133 867 l 1,1,-1
 133 834 l 1,2,-1
 133 467 l 1,3,-1
 467 467 l 1,4,-1
 467 834 l 1,5,-1
 467 867 l 1,6,-1
 500 867 l 1,7,-1
 533 867 l 1,8,-1
 533 834 l 1,9,-1
 533 434 l 2,10,11
 533 422 533 422 523.5 411.5 c 128,-1,12
 514 401 514 401 500 401 c 2,13,-1
 100 401 l 2,14,15
 88 401 88 401 77.5 410.5 c 128,-1,16
 67 420 67 420 67 434 c 2,17,-1
 67 834 l 1,18,-1
 67 867 l 1,19,-1
 100 867 l 1,0,-1
EndSplineSet
EndChar

StartChar: vy.ccv.1
Encoding: 115 -1 71
Width: 1133
VWidth: 230
Flags: W
HStem: 401 66<133 467> 847 20G<67 133 467 533>
VStem: 67 66<467 867> 467 66<467 867>
AnchorPoint: "Above" 0 0 basechar 0
LayerCount: 2
Back
SplineSet
100 834 m 29
 100 434 l 13
 500 434 l 29
 500 834 l 1053
EndSplineSet
Fore
SplineSet
100 867 m 1,0,-1
 133 867 l 1,1,-1
 133 834 l 1,2,-1
 133 467 l 1,3,-1
 467 467 l 1,4,-1
 467 834 l 1,5,-1
 467 867 l 1,6,-1
 500 867 l 1,7,-1
 533 867 l 1,8,-1
 533 834 l 1,9,-1
 533 434 l 2,10,11
 533 422 533 422 523.5 411.5 c 128,-1,12
 514 401 514 401 500 401 c 2,13,-1
 100 401 l 2,14,15
 88 401 88 401 77.5 410.5 c 128,-1,16
 67 420 67 420 67 434 c 2,17,-1
 67 834 l 1,18,-1
 67 867 l 1,19,-1
 100 867 l 1,0,-1
EndSplineSet
EndChar

StartChar: ybu.cv
Encoding: 47 -1 79
Width: 600
VWidth: 230
Flags: W
HStem: -133 21G<267 333> 67 66<67 267 333 533> 313 20G<267 333>
VStem: 267 66<-133 67 133 333>
AnchorPoint: "Above" 0 0 mark 0
LayerCount: 2
Back
SplineSet
100 100 m 29
 500 100 l 1053
300 300 m 29
 300 -100 l 1053
EndSplineSet
Fore
SplineSet
300 333 m 1,0,-1
 333 333 l 1,1,-1
 333 300 l 1,2,-1
 333 133 l 1,3,-1
 500 133 l 1,4,-1
 533 133 l 1,5,-1
 533 100 l 1,6,-1
 533 67 l 1,7,-1
 500 67 l 1,8,-1
 333 67 l 1,9,-1
 333 -100 l 1,10,-1
 333 -133 l 1,11,-1
 300 -133 l 1,12,-1
 267 -133 l 1,13,-1
 267 -100 l 1,14,-1
 267 67 l 1,15,-1
 100 67 l 1,16,-1
 67 67 l 1,17,-1
 67 100 l 1,18,-1
 67 133 l 1,19,-1
 100 133 l 1,20,-1
 267 133 l 1,21,-1
 267 300 l 1,22,-1
 267 333 l 1,23,-1
 300 333 l 1,0,-1
EndSplineSet
Substitution2: "Single Substitution lookup 73 subtable" ybu.cvc
Substitution2: "Single Substitution lookup 69 subtable" ybu.ccv
EndChar

StartChar: eibu.cv
Encoding: 58 -1 80
Width: 600
VWidth: 230
Flags: W
HStem: -133 21G<67 133> 67 66<133 533> 267 66<133 533>
VStem: 67 66<-133 67 133 267>
AnchorPoint: "Above" 0 0 mark 0
LayerCount: 2
Back
SplineSet
500 100 m 29
 100 100 l 1053
500 300 m 29
 100 300 l 29
 100 -100 l 1053
EndSplineSet
Fore
SplineSet
533 300 m 1,0,-1
 533 267 l 1,1,-1
 500 267 l 1,2,-1
 133 267 l 1,3,-1
 133 133 l 1,4,-1
 500 133 l 1,5,-1
 533 133 l 1,6,-1
 533 100 l 1,7,-1
 533 67 l 1,8,-1
 500 67 l 1,9,-1
 133 67 l 1,10,-1
 133 -100 l 1,11,-1
 133 -133 l 1,12,-1
 100 -133 l 1,13,-1
 67 -133 l 1,14,-1
 67 -100 l 1,15,-1
 67 67 l 1,16,-1
 67 100 l 1,17,-1
 67 133 l 1,18,-1
 67 300 l 2,19,20
 67 312 67 312 76.5 322.5 c 128,-1,21
 86 333 86 333 100 333 c 2,22,-1
 500 333 l 1,23,-1
 533 333 l 1,24,-1
 533 300 l 1,0,-1
EndSplineSet
Substitution2: "Single Substitution lookup 73 subtable" eibu.cvc
Substitution2: "Single Substitution lookup 69 subtable" eibu.ccv
EndChar

StartChar: oibu.cv
Encoding: 59 -1 81
Width: 600
VWidth: 230
Flags: W
HStem: -133 21G<467 533> 67 66<67 467> 267 66<67 467>
VStem: 467 66<-133 67 133 267>
AnchorPoint: "Above" 0 0 mark 0
LayerCount: 2
Back
SplineSet
100 100 m 29
 499 100 l 1052
100 300 m 29
 500 300 l 29
 500 -100 l 1053
EndSplineSet
Fore
SplineSet
67 300 m 1,0,-1
 67 333 l 1,1,-1
 100 333 l 1,2,-1
 500 333 l 2,3,4
 514 333 514 333 523.5 322.5 c 128,-1,5
 533 312 533 312 533 300 c 2,6,-1
 533 -100 l 1,7,-1
 533 -133 l 1,8,-1
 500 -133 l 1,9,-1
 467 -133 l 1,10,-1
 467 -100 l 1,11,-1
 467 67 l 1,12,-1
 100 67 l 1,13,-1
 67 67 l 1,14,-1
 67 100 l 1,15,-1
 67 133 l 1,16,-1
 100 133 l 1,17,-1
 467 133 l 1,18,-1
 467 267 l 1,19,-1
 100 267 l 1,20,-1
 67 267 l 1,21,-1
 67 300 l 1,0,-1
EndSplineSet
Substitution2: "Single Substitution lookup 73 subtable" oibu.cvc
Substitution2: "Single Substitution lookup 69 subtable" oibu.ccv
EndChar

StartChar: aibu.cv
Encoding: 60 -1 82
Width: 600
VWidth: 230
Flags: W
HStem: -133 21G<67 133> 67 66<133 267 333 533> 313 20G<267 333>
VStem: 67 66<-133 67> 267 66<133 333>
AnchorPoint: "Above" 0 0 mark 0
LayerCount: 2
Back
SplineSet
300 300 m 5
 300 100 l 1053
500 100 m 29
 100 100 l 29
 100 -100 l 1053
EndSplineSet
Fore
SplineSet
533 100 m 1,0,-1
 533 67 l 1,1,-1
 500 67 l 1,2,-1
 333 67 l 1,3,-1
 300 67 l 1,4,-1
 267 67 l 1,5,-1
 133 67 l 1,6,-1
 133 -100 l 1,7,-1
 133 -133 l 1,8,-1
 100 -133 l 1,9,-1
 67 -133 l 1,10,-1
 67 -100 l 1,11,-1
 67 100 l 2,12,13
 67 112 67 112 76.5 122.5 c 128,-1,14
 86 133 86 133 100 133 c 2,15,-1
 267 133 l 1,16,-1
 267 300 l 1,17,-1
 267 333 l 1,18,-1
 300 333 l 1,19,-1
 333 333 l 1,20,-1
 333 300 l 1,21,-1
 333 133 l 1,22,-1
 500 133 l 1,23,-1
 533 133 l 1,24,-1
 533 100 l 1,0,-1
EndSplineSet
Substitution2: "Single Substitution lookup 73 subtable" aibu.cvc
Substitution2: "Single Substitution lookup 69 subtable" aibu.ccv
EndChar

StartChar: aubu.cv
Encoding: 61 -1 83
Width: 600
VWidth: 230
Flags: W
HStem: -133 21G<467 533> 67 66<67 267 333 467> 313 20G<267 333>
VStem: 267 66<133 333> 467 66<-133 67>
AnchorPoint: "Above" 0 0 mark 0
LayerCount: 2
Back
SplineSet
300 300 m 5
 300 100 l 1053
100 100 m 29
 500 100 l 29
 500 -100 l 1053
EndSplineSet
Fore
SplineSet
67 100 m 1,0,-1
 67 133 l 1,1,-1
 100 133 l 1,2,-1
 267 133 l 1,3,-1
 267 300 l 1,4,-1
 267 333 l 1,5,-1
 300 333 l 1,6,-1
 333 333 l 1,7,-1
 333 300 l 1,8,-1
 333 133 l 1,9,-1
 500 133 l 2,10,11
 514 133 514 133 523.5 122.5 c 128,-1,12
 533 112 533 112 533 100 c 2,13,-1
 533 -100 l 1,14,-1
 533 -133 l 1,15,-1
 500 -133 l 1,16,-1
 467 -133 l 1,17,-1
 467 -100 l 1,18,-1
 467 67 l 1,19,-1
 333 67 l 1,20,-1
 300 67 l 1,21,-1
 267 67 l 1,22,-1
 100 67 l 1,23,-1
 67 67 l 1,24,-1
 67 100 l 1,0,-1
EndSplineSet
Substitution2: "Single Substitution lookup 73 subtable" aubu.cvc
Substitution2: "Single Substitution lookup 69 subtable" aubu.ccv
EndChar

StartChar: ubu.cv
Encoding: 45 -1 84
Width: 600
VWidth: 230
Flags: W
HStem: -133 21G<467 533> 267 66<67 467>
VStem: 467 66<-133 267>
AnchorPoint: "Above" 0 0 mark 0
LayerCount: 2
Back
SplineSet
100 300 m 29
 500 300 l 29
 500 -100 l 1053
EndSplineSet
Fore
SplineSet
67 300 m 1,0,-1
 67 333 l 1,1,-1
 100 333 l 1,2,-1
 500 333 l 2,3,4
 514 333 514 333 523.5 322.5 c 128,-1,5
 533 312 533 312 533 300 c 2,6,-1
 533 -100 l 1,7,-1
 533 -133 l 1,8,-1
 500 -133 l 1,9,-1
 467 -133 l 1,10,-1
 467 -100 l 1,11,-1
 467 267 l 1,12,-1
 100 267 l 1,13,-1
 67 267 l 1,14,-1
 67 300 l 1,0,-1
EndSplineSet
Substitution2: "Single Substitution lookup 73 subtable" ubu.cvc
Substitution2: "Single Substitution lookup 69 subtable" ubu.ccv
EndChar

StartChar: abu.cv
Encoding: 46 -1 85
Width: 600
VWidth: 230
Flags: W
HStem: -133 66<67 267 333 533> 313 20G<267 333>
VStem: 267 66<-67 333>
AnchorPoint: "Above" 0 0 mark 0
LayerCount: 2
Back
SplineSet
300 300 m 29
 300 -100 l 1053
100 -100 m 29
 500 -100 l 1053
EndSplineSet
Fore
SplineSet
67 -100 m 1,0,-1
 67 -67 l 1,1,-1
 100 -67 l 1,2,-1
 267 -67 l 1,3,-1
 267 300 l 1,4,-1
 267 333 l 1,5,-1
 300 333 l 1,6,-1
 333 333 l 1,7,-1
 333 300 l 1,8,-1
 333 -67 l 1,9,-1
 500 -67 l 1,10,-1
 533 -67 l 1,11,-1
 533 -100 l 1,12,-1
 533 -133 l 1,13,-1
 500 -133 l 1,14,-1
 333 -133 l 1,15,-1
 300 -133 l 1,16,-1
 267 -133 l 1,17,-1
 100 -133 l 1,18,-1
 67 -133 l 1,19,-1
 67 -100 l 1,0,-1
EndSplineSet
Substitution2: "Single Substitution lookup 73 subtable" abu.cvc
Substitution2: "Single Substitution lookup 69 subtable" abu.ccv
EndChar

StartChar: sy.ccv.2
Encoding: 132 -1 89
Width: 1133
VWidth: 230
Flags: W
HStem: 401 21G<600 666 1000 1066> 601 66<666 1000> 801 66<666 1000>
VStem: 600 66<401 601 667 801> 1000 66<401 601 667 801>
AnchorPoint: "Above" 0 0 mark 0
LayerCount: 2
Back
SplineSet
639 634 m 5
 1033 634 l 1029
1033 434 m 5
 1033 834 l 13
 633 834 l 29
 633 434 l 1053
EndSplineSet
Fore
SplineSet
1033 401 m 1,0,-1
 1000 401 l 1,1,-1
 1000 434 l 1,2,-1
 1000 601 l 1,3,-1
 666 601 l 1,4,-1
 666 434 l 1,5,-1
 666 401 l 1,6,-1
 633 401 l 1,7,-1
 600 401 l 1,8,-1
 600 434 l 1,9,-1
 600 834 l 2,10,11
 600 846 600 846 609.5 856.5 c 128,-1,12
 619 867 619 867 633 867 c 2,13,-1
 1033 867 l 2,14,15
 1045 867 1045 867 1055.5 857.5 c 128,-1,16
 1066 848 1066 848 1066 834 c 2,17,-1
 1066 667 l 1,18,-1
 1066 634 l 1,19,-1
 1066 601 l 1,20,-1
 1066 434 l 1,21,-1
 1066 401 l 1,22,-1
 1033 401 l 1,0,-1
1000 667 m 1,23,-1
 1000 801 l 1,24,-1
 666 801 l 1,25,-1
 666 667 l 1,26,-1
 1000 667 l 1,23,-1
EndSplineSet
EndChar

StartChar: guillemotleft
Encoding: 160 171 145
Width: 800
VWidth: 230
Flags: W
LayerCount: 2
Back
SplineSet
586.009765625 503.009765625 m 5
 405.009765625 360.009765625 l 1
 586.009765625 217.009765625 l 1025
405.009765625 503.009765625 m 5
 224.009765625 360.009765625 l 1
 405.009765625 217.009765625 l 1025
EndSplineSet
Fore
SplineSet
430.903571351 523.467302745 m 1,0,-1
 451.361108471 497.57349702 l 1,1,-1
 425.467302745 477.115959899 l 1,2,-1
 277.241979923 360.009765625 l 1,3,-1
 425.467302745 242.903571351 l 1,4,-1
 451.361108471 222.44603423 l 1,5,-1
 430.903571351 196.552228505 l 1,6,-1
 410.44603423 170.658422779 l 1,7,-1
 384.552228505 191.115959899 l 1,8,-1
 203.552228505 334.115959899 l 2,9,10
 201.123070605 336.156360206 201.123070605 336.156360206 199.800816502 337.583736499 c 0,11,12
 190.13268363 348.020507784 190.13268363 348.020507784 191.260889378 362.552293508 c 128,-1,13
 192.389095125 377.084079233 192.389095125 377.084079233 203.552228505 385.903571351 c 2,14,-1
 384.552228505 528.903571351 l 1,15,-1
 410.44603423 549.361108471 l 1,16,-1
 430.903571351 523.467302745 l 1,0,-1
611.903571351 523.467302745 m 1,17,-1
 632.361108471 497.57349702 l 1,18,-1
 606.467302745 477.115959899 l 1,19,-1
 458.241979923 360.009765625 l 1,20,-1
 606.467302745 242.903571351 l 1,21,-1
 632.361108471 222.44603423 l 1,22,-1
 611.903571351 196.552228505 l 1,23,-1
 591.44603423 170.658422779 l 1,24,-1
 565.552228505 191.115959899 l 1,25,-1
 384.552228505 334.115959899 l 2,26,27
 382.123070605 336.156360206 382.123070605 336.156360206 380.800816502 337.583736499 c 0,28,29
 371.13268363 348.020507784 371.13268363 348.020507784 372.260889378 362.552293508 c 128,-1,30
 373.389095125 377.084079233 373.389095125 377.084079233 384.552228505 385.903571351 c 2,31,-1
 565.552228505 528.903571351 l 1,32,-1
 591.44603423 549.361108471 l 1,33,-1
 611.903571351 523.467302745 l 1,17,-1
EndSplineSet
EndChar

StartChar: parenleft
Encoding: 162 40 148
Width: 500
VWidth: 230
Flags: W
HStem: 857.59 20G<359.231 399.822>
VStem: 71.0098 66<220.728 496.493>
LayerCount: 2
Back
SplineSet
377.009765625 832.009765625 m 24
 373.20601979 829.577341253 368.02887462 826.05949598 361.478330115 821.456229805 c 0
 354.92778561 816.852963631 342.200665372 806.562863817 323.296969402 790.585930362 c 0
 304.393273433 774.608996907 286.345139707 757.729882831 269.152568225 739.948588133 c 0
 251.959996743 722.167293434 232.865512484 699.101626473 211.869115448 670.75158725 c 0
 190.872718412 642.401548027 172.824465107 613.317953721 157.724355534 583.500804332 c 0
 142.62424596 553.683654943 129.896886564 518.98459467 119.542277347 479.403623511 c 0
 109.187668129 439.822652352 104.010164222 399.69136639 104.009765625 359.009765625 c 0
 104.009367028 318.466743729 109.027767497 278.561931051 119.06496703 239.29532759 c 0
 129.102166564 200.028724129 142.146263723 165.216646452 158.197258507 134.859094559 c 0
 174.248253292 104.501542665 191.979563841 75.6793311354 211.391190154 48.3924599695 c 0
 230.802816467 21.1055888036 250.21448264 -2.12698017266 269.626188673 -21.3052469593 c 0
 289.037894706 -40.4835137459 306.769324834 -57.1428187067 322.820479057 -71.2831618417 c 0
 338.87163328 -85.4235049768 351.915969597 -95.9097695162 361.953488008 -102.74195546 c 2
 377.009765625 -112.990234375 l 1025
EndSplineSet
Fore
SplineSet
404.811267225 849.788306308 m 1,0,-1
 422.589807907 821.986804708 l 1,1,-1
 394.788306308 804.208264025 l 2,2,3
 389.689007948 800.947358027 389.689007948 800.947358027 380.452031168 794.456254465 c 0,4,5
 371.830268968 788.397480838 371.830268968 788.397480838 344.598684529 765.382023271 c 128,-1,6
 317.511253711 742.488400757 317.511253711 742.488400757 292.87652652 717.010109482 c 0,7,8
 268.593449057 691.895509435 268.593449057 691.895509435 238.388127731 651.111271887 c 0,9,10
 208.554061364 610.828315234 208.554061364 610.828315234 187.164420054 568.591659453 c 0,11,12
 166.107369586 527.011747967 166.107369586 527.011747967 151.467899244 471.051697595 c 0,13,14
 137.010321927 415.786941702 137.010321927 415.786941702 137.009765623 359.009441187 c 128,-1,15
 137.00920854 302.346015938 137.00920854 302.346015938 151.036969964 247.467905421 c 0,16,17
 165.123449006 192.360085272 165.123449006 192.360085272 187.370461678 150.283886834 c 0,18,19
 210.42773016 106.675236164 210.42773016 106.675236164 238.281164721 67.5217377343 c 0,20,21
 265.738650823 28.9248229924 265.738650823 28.9248229924 292.819132431 2.1700029825 c 0,22,23
 321.265630026 -25.9344057228 321.265630026 -25.9344057228 344.634522248 -46.521346083 c 0,24,25
 367.167070667 -66.3715052635 367.167070667 -66.3715052635 380.522119112 -75.4618172837 c 2,26,-1
 395.578396729 -85.7100961987 l 1,27,-1
 422.858534905 -104.278727303 l 1,28,-1
 404.289903801 -131.558865479 l 1,29,-1
 385.721272697 -158.839003655 l 1,30,-1
 358.441134521 -140.270372551 l 1,31,-1
 343.384856904 -130.022093636 l 2,32,33
 326.627350115 -118.615847825 326.627350115 -118.615847825 301.006435866 -96.0449776004 c 0,34,35
 276.221865418 -74.2108885556 276.221865418 -74.2108885556 246.433244915 -44.7804969011 c 0,36,37
 215.278608425 -14.0005165511 215.278608425 -14.0005165511 184.501215587 29.2631822047 c 0,38,39
 154.119771208 71.9702972725 154.119771208 71.9702972725 129.024055336 119.434302284 c 0,40,41
 103.118083656 168.430759526 103.118083656 168.430759526 87.0929640963 231.122749759 c 0,42,43
 71.0091269202 294.044449624 71.0091269202 294.044449624 71.0097656266 359.010090063 c 0,44,45
 71.010405113 424.277391844 71.010405113 424.277391844 87.6166554501 487.755549427 c 0,46,47
 104.04101276 550.538412531 104.04101276 550.538412531 128.284291014 598.409949211 c 0,48,49
 152.194978424 645.624741596 152.194978424 645.624741596 185.350103165 690.391902613 c 0,50,51
 218.133972947 734.657782736 218.133972947 734.657782736 245.42860993 762.887066784 c 0,52,53
 272.371597185 790.752659603 272.371597185 790.752659603 301.995254275 815.789837453 c 128,-1,54
 331.474757746 840.70518025 331.474757746 840.70518025 342.504629062 848.456205145 c 0,55,56
 352.919285798 855.774900107 352.919285798 855.774900107 359.231224942 859.811267225 c 2,57,-1
 387.032726542 877.589807907 l 1,58,-1
 404.811267225 849.788306308 l 1,0,-1
EndSplineSet
EndChar

StartChar: denpabu_iy
Encoding: 174 -1 149
Width: 810
VWidth: 2427
Flags: W
HStem: 252.504 66<164.878 713.196> 453.01 66<394.966 541.054> 797.01 66<394.966 541.054>
VStem: 98.8779 66<317.988 860.812> 267.01 66<582.005 734.015> 603.01 66<582.005 734.015>
AnchorPoint: "Above" 0 0 basechar 0
LayerCount: 2
Back
SplineSet
131.877929688 827.811523438 m 5
 131.877929688 284.955078125 l 1
 680.229492188 285.50390625 l 1025
300.009765625 658.009765625 m 0
 300.009765625 705.534456983 316.390789721 746.082296489 349.152837914 779.653284144 c 0
 381.914886107 813.224271798 421.53386201 830.009765625 468.009765625 830.009765625 c 0
 514.48566924 830.009765625 554.104645143 813.224271798 586.866693336 779.653284144 c 0
 619.628741529 746.082296489 636.009765625 705.534456983 636.009765625 658.009765625 c 0
 636.009765625 610.485074267 619.628741529 569.937234761 586.866693336 536.366247106 c 0
 554.104645143 502.795259452 514.48566924 486.009765625 468.009765625 486.009765625 c 0
 421.53386201 486.009765625 381.914886107 502.795259452 349.152837914 536.366247106 c 0
 316.390789721 569.937234761 300.009765625 610.485074267 300.009765625 658.009765625 c 0
EndSplineSet
Fore
SplineSet
267.009765625 658.009765625 m 128,-1,1
 267.009765625 742.730709533 267.009765625 742.730709533 325.535502903 802.701526745 c 0,2,3
 384.390531208 863.009765625 384.390531208 863.009765625 468.009765625 863.009765625 c 128,-1,4
 551.629000042 863.009765625 551.629000042 863.009765625 610.484028347 802.701526745 c 0,5,6
 669.009765625 742.730709533 669.009765625 742.730709533 669.009765625 658.009765625 c 128,-1,7
 669.009765625 573.288821717 669.009765625 573.288821717 610.484028347 513.318004505 c 0,8,9
 551.629000042 453.009765625 551.629000042 453.009765625 468.009765625 453.009765625 c 128,-1,10
 384.390531208 453.009765625 384.390531208 453.009765625 325.535502903 513.318004505 c 0,11,0
 267.009765625 573.288821717 267.009765625 573.288821717 267.009765625 658.009765625 c 128,-1,1
333.009765625 658.009765625 m 128,-1,13
 333.009765625 600.156635459 333.009765625 600.156635459 372.770172925 559.414489707 c 0,14,15
 412.201289198 519.009765625 412.201289198 519.009765625 468.009765625 519.009765625 c 128,-1,16
 523.818242052 519.009765625 523.818242052 519.009765625 563.249358325 559.414489707 c 0,17,18
 603.009765625 600.156635459 603.009765625 600.156635459 603.009765625 658.009765625 c 128,-1,19
 603.009765625 715.862895791 603.009765625 715.862895791 563.249358325 756.605041543 c 0,20,21
 523.818242052 797.009765625 523.818242052 797.009765625 468.009765625 797.009765625 c 128,-1,22
 412.201289198 797.009765625 412.201289198 797.009765625 372.770172925 756.605041543 c 0,23,12
 333.009765625 715.862895791 333.009765625 715.862895791 333.009765625 658.009765625 c 128,-1,13
131.877929688 860.811523438 m 1,24,-1
 164.877929688 860.811523438 l 1,25,-1
 164.877929688 827.811523438 l 1,26,-1
 164.877929688 317.988123333 l 1,27,-1
 680.196463525 318.503889721 l 1,28,-1
 713.196446996 318.536918384 l 1,29,-1
 713.229475659 285.536934913 l 1,30,-1
 713.262504322 252.536951442 l 1,31,-1
 680.262520851 252.503922779 l 1,32,-1
 131.910958351 251.955094654 l 2,33,34
 120.214369789 251.9433879 120.214369789 251.9433879 109.546149738 261.419787214 c 128,-1,35
 98.877929688 270.896186529 98.877929688 270.896186529 98.877929688 284.955078125 c 2,36,-1
 98.877929688 827.811523438 l 1,37,-1
 98.877929688 860.811523438 l 1,38,-1
 131.877929688 860.811523438 l 1,24,-1
EndSplineSet
Ligature2: "Vdenpabu subtable" denpabu iy
EndChar

StartChar: denpabu_uy
Encoding: 175 -1 150
Width: 810
VWidth: 2427
Flags: W
HStem: 252.504 66<98.8779 649.428> 452.01 66<269.966 416.054> 796.01 66<269.966 416.054>
VStem: 142.01 66<581.005 733.015> 478.01 66<581.005 733.015> 649.428 66<318.504 867.405>
AnchorPoint: "Above" 0 0 basechar 0
LayerCount: 2
Back
SplineSet
131.877929688 285.50390625 m 1
 682.427734375 285.50390625 l 1
 682.427734375 834.405273438 l 1025
175.009765625 657.009765625 m 0
 175.009765625 704.534456983 191.390789721 745.082296489 224.152837914 778.653284144 c 0
 256.914886107 812.224271798 296.53386201 829.009765625 343.009765625 829.009765625 c 0
 389.48566924 829.009765625 429.104645143 812.224271798 461.866693336 778.653284144 c 0
 494.628741529 745.082296489 511.009765625 704.534456983 511.009765625 657.009765625 c 0
 511.009765625 609.485074267 494.628741529 568.937234761 461.866693336 535.366247106 c 0
 429.104645143 501.795259452 389.48566924 485.009765625 343.009765625 485.009765625 c 0
 296.53386201 485.009765625 256.914886107 501.795259452 224.152837914 535.366247106 c 0
 191.390789721 568.937234761 175.009765625 609.485074267 175.009765625 657.009765625 c 0
EndSplineSet
Fore
SplineSet
142.009765625 657.009765625 m 128,-1,1
 142.009765625 741.730709533 142.009765625 741.730709533 200.535502903 801.701526745 c 0,2,3
 259.390531208 862.009765625 259.390531208 862.009765625 343.009765625 862.009765625 c 128,-1,4
 426.629000042 862.009765625 426.629000042 862.009765625 485.484028347 801.701526745 c 0,5,6
 544.009765625 741.730709533 544.009765625 741.730709533 544.009765625 657.009765625 c 128,-1,7
 544.009765625 572.288821717 544.009765625 572.288821717 485.484028347 512.318004505 c 0,8,9
 426.629000042 452.009765625 426.629000042 452.009765625 343.009765625 452.009765625 c 128,-1,10
 259.390531208 452.009765625 259.390531208 452.009765625 200.535502903 512.318004505 c 0,11,0
 142.009765625 572.288821717 142.009765625 572.288821717 142.009765625 657.009765625 c 128,-1,1
208.009765625 657.009765625 m 128,-1,13
 208.009765625 599.156635459 208.009765625 599.156635459 247.770172925 558.414489707 c 0,14,15
 287.201289198 518.009765625 287.201289198 518.009765625 343.009765625 518.009765625 c 128,-1,16
 398.818242052 518.009765625 398.818242052 518.009765625 438.249358325 558.414489707 c 0,17,18
 478.009765625 599.156635459 478.009765625 599.156635459 478.009765625 657.009765625 c 128,-1,19
 478.009765625 714.862895791 478.009765625 714.862895791 438.249358325 755.605041543 c 0,20,21
 398.818242052 796.009765625 398.818242052 796.009765625 343.009765625 796.009765625 c 128,-1,22
 287.201289198 796.009765625 287.201289198 796.009765625 247.770172925 755.605041543 c 0,23,12
 208.009765625 714.862895791 208.009765625 714.862895791 208.009765625 657.009765625 c 128,-1,13
98.877929688 285.50390625 m 1,24,-1
 98.877929688 318.50390625 l 1,25,-1
 131.877929688 318.50390625 l 1,26,-1
 649.427734375 318.50390625 l 1,27,-1
 649.427734375 834.405273438 l 1,28,-1
 649.427734375 867.405273438 l 1,29,-1
 682.427734375 867.405273438 l 1,30,-1
 715.427734375 867.405273438 l 1,31,-1
 715.427734375 834.405273438 l 1,32,-1
 715.427734375 285.50390625 l 2,33,34
 715.427734375 273.839592608 715.427734375 273.839592608 705.955880236 263.171749429 c 128,-1,35
 696.484026096 252.50390625 696.484026096 252.50390625 682.427734375 252.50390625 c 2,36,-1
 131.877929688 252.50390625 l 1,37,-1
 98.877929688 252.50390625 l 1,38,-1
 98.877929688 285.50390625 l 1,24,-1
EndSplineSet
Ligature2: "Vdenpabu subtable" denpabu uy
EndChar

StartChar: .notdef
Encoding: 257 -1 162
Width: 0
VWidth: 230
Flags: W
LayerCount: 2
Back
SplineSet
405.009765625 -112.990234375 m 5
 405.009765625 10.009765625 l 1025
54 210.009765625 m 29
 55.009765625 -112.990234375 l 1
 755.009765625 -112.990234375 l 1025
EndSplineSet
EndChar

StartChar: NameMe.192
Encoding: 258 -1 163
Width: 1000
VWidth: 0
LayerCount: 2
Back
SplineSet
165.009765625 235 m 5
 566.009765625 235 l 1
 566 -32 l 1
 165 -32 l 1
 165.009765625 235 l 5
165 102 m 5
 566 102 l 1025
33 367.009765625 m 25
 700 367.009765625 l 1025
165.009765625 767 m 1
 566.009765625 767 l 1
 566 500 l 1
 165 500 l 1
 165.009765625 767 l 1
165 634 m 1
 566 634 l 1025
EndSplineSet
EndChar

StartChar: zy_dy
Encoding: 259 -1 164
Width: 600
VWidth: 230
Flags: W
HStem: 401 66<133 267 333 533> 601 66<133 267 333 467> 801 66<333 533>
VStem: 67 66<467 601 667 867> 267 66<467 601 667 801>
CounterMasks: 1 e0
LayerCount: 2
Back
SplineSet
300 434.5 m 28
 300 834 l 29
 500 834 l 1053
500 434 m 5
 100 434 l 5
 100 834 l 1053
434 634 m 29
 100 634 l 1029
EndSplineSet
Fore
SplineSet
467 634 m 1,0,-1
 467 601 l 1,1,-1
 434 601 l 1,2,-1
 333 601 l 1,3,-1
 333 467 l 1,4,-1
 500 467 l 1,5,-1
 533 467 l 1,6,-1
 533 434 l 1,7,-1
 533 401 l 1,8,-1
 500 401 l 1,9,-1
 100 401 l 2,10,11
 86 401 86 401 76.5 411.5 c 128,-1,12
 67 422 67 422 67 434 c 2,13,-1
 67 601 l 1,14,-1
 67 634 l 1,15,-1
 67 667 l 1,16,-1
 67 834 l 1,17,-1
 67 867 l 1,18,-1
 100 867 l 1,19,-1
 133 867 l 1,20,-1
 133 834 l 1,21,-1
 133 667 l 1,22,-1
 267 667 l 1,23,-1
 267 834 l 2,24,25
 267 848 267 848 277.5 857.5 c 128,-1,26
 288 867 288 867 300 867 c 2,27,-1
 500 867 l 1,28,-1
 533 867 l 1,29,-1
 533 834 l 1,30,-1
 533 801 l 1,31,-1
 500 801 l 1,32,-1
 333 801 l 1,33,-1
 333 667 l 1,34,-1
 434 667 l 1,35,-1
 467 667 l 1,36,-1
 467 634 l 1,0,-1
133 601 m 1,37,-1
 133 467 l 1,38,-1
 267 467 l 1,39,-1
 267 601 l 1,40,-1
 133 601 l 1,37,-1
EndSplineSet
EndChar

StartChar: zy_vy
Encoding: 195 -1 165
Width: 600
VWidth: 0
Flags: W
HStem: 401 66<133 267 333 410.943> 601 66<133 267> 847 20G<67 133 267 333 552.437 593.865>
VStem: 67 66<467 601 667 867> 267 66<467 601 667 867>
AnchorPoint: "Above" 0 0 basechar 0
LayerCount: 2
Back
SplineSet
300 834 m 29
 300 434.5 l 1052
574 832 m 4
 541.333333333 788.666666667 511.333333333 728 484 650 c 132
 456.666666667 572 442 500 440 434 c 5
 100 434 l 5
 100 834 l 1053
293 634 m 29
 100 634 l 1029
EndSplineSet
Fore
SplineSet
593.864804904 858.351271812 m 1,0,-1
 620.216076716 838.486466908 l 1,1,-1
 600.351271812 812.135195096 l 2,2,3
 554.444049147 751.237858907 554.444049147 751.237858907 515.143173689 639.08658016 c 128,-1,4
 475.830334758 526.901161749 475.830334758 526.901161749 472.984858912 433.000458821 c 0,5,6
 472.583297487 419.748931797 472.583297487 419.748931797 462.780270988 410.374465899 c 128,-1,7
 452.977244489 401 452.977244489 401 440 401 c 2,8,-1
 100 401 l 2,9,10
 86 401 86 401 76.5 411.5 c 128,-1,11
 67 422 67 422 67 434 c 2,12,-1
 67 601 l 1,13,-1
 67 634 l 1,14,-1
 67 667 l 1,15,-1
 67 834 l 1,16,-1
 67 867 l 1,17,-1
 100 867 l 1,18,-1
 133 867 l 1,19,-1
 133 834 l 1,20,-1
 133 667 l 1,21,-1
 267 667 l 1,22,-1
 267 834 l 1,23,-1
 267 867 l 1,24,-1
 300 867 l 1,25,-1
 333 867 l 1,26,-1
 333 834 l 1,27,-1
 333 467 l 1,28,-1
 408.881836621 467 l 1,29,30
 416.761474422 557.909610788 416.761474422 557.909610788 452.856826311 660.91341984 c 0,31,32
 495.555950853 782.762141093 495.555950853 782.762141093 547.648728188 851.864804904 c 2,33,-1
 567.513533092 878.216076716 l 1,34,-1
 593.864804904 858.351271812 l 1,0,-1
133 601 m 1,35,-1
 133 467 l 1,36,-1
 267 467 l 1,37,-1
 267 601 l 1,38,-1
 133 601 l 1,35,-1
EndSplineSet
EndChar

StartChar: NameMe.210
Encoding: 210 -1 166
Width: 600
VWidth: 0
Flags: W
HStem: 401 66<67 267 333 533> 601 66<333 467> 801 66<67 267 333 467>
VStem: 267 66<467 601 667 801> 467 66<667 801>
CounterMasks: 1 e0
LayerCount: 2
Back
SplineSet
300 834 m 5
 500 834 l 5
 500 634 l 5
 300 634 l 1029
100 434 m 5
 500 434 l 1029
100 834 m 5
 300 834 l 5
 300 434 l 1029
EndSplineSet
Fore
SplineSet
67 834 m 1,0,-1
 67 867 l 1,1,-1
 100 867 l 1,2,-1
 267 867 l 1,3,-1
 300 867 l 1,4,-1
 500 867 l 2,5,6
 514 867 514 867 523.5 856.5 c 128,-1,7
 533 846 533 846 533 834 c 2,8,-1
 533 634 l 2,9,10
 533 620 533 620 522.5 610.5 c 128,-1,11
 512 601 512 601 500 601 c 2,12,-1
 333 601 l 1,13,-1
 333 467 l 1,14,-1
 500 467 l 1,15,-1
 533 467 l 1,16,-1
 533 434 l 1,17,-1
 533 401 l 1,18,-1
 500 401 l 1,19,-1
 333 401 l 1,20,-1
 300 401 l 1,21,-1
 267 401 l 1,22,-1
 100 401 l 1,23,-1
 67 401 l 1,24,-1
 67 434 l 1,25,-1
 67 467 l 1,26,-1
 100 467 l 1,27,-1
 267 467 l 1,28,-1
 267 601 l 1,29,-1
 267 634 l 1,30,-1
 267 667 l 1,31,-1
 267 801 l 1,32,-1
 100 801 l 1,33,-1
 67 801 l 1,34,-1
 67 834 l 1,0,-1
333 801 m 1,35,-1
 333 667 l 1,36,-1
 467 667 l 1,37,-1
 467 801 l 1,38,-1
 333 801 l 1,35,-1
EndSplineSet
EndChar

StartChar: NameMe.242
Encoding: 242 -1 167
Width: 600
VWidth: 0
Flags: W
HStem: 389.726 21G<475.242 514.758> 401 66<67 279.605> 801 66<67 279.605> 858.274 20G<475.242 514.758>
LayerCount: 2
Back
SplineSet
300 812 m 29
 300 454 l 1053
500 434 m 5
 455.845350119 585.446981514 403.234875539 743.620194639 300 834 c 5
 100 834 l 1029
500 834 m 5
 455.418644037 696.193052235 401.646231 507.274530895 300 434 c 5
 100 434 l 1053
EndSplineSet
Fore
SplineSet
508.003675626 866.014702505 m 1,0,-1
 540.018378131 858.011026879 l 1,1,-1
 532.014702505 825.996324374 l 2,2,3
 530.764151902 820.994121963 530.764151902 820.994121963 516.951406536 777.509553218 c 0,4,5
 503.30599675 734.551781671 503.30599675 734.551781671 499.64732576 724.098435984 c 0,6,7
 496.137782027 714.071168174 496.137782027 714.071168174 482.641015425 675.580423163 c 0,8,9
 473.452862602 649.37717252 473.452862602 649.37717252 467.250126819 633.589707118 c 1,10,11
 500.083928867 550.817305991 500.083928867 550.817305991 531.662585026 443.299500497 c 2,12,-1
 540.962085523 411.636915471 l 1,13,-1
 509.299500497 402.337414974 l 1,14,-1
 477.636915471 393.037914477 l 1,15,-1
 468.337414974 424.700499503 l 2,16,17
 448.862136416 491.009186022 448.862136416 491.009186022 429.007343806 547.36647595 c 1,18,19
 421.154605267 531.490471308 421.154605267 531.490471308 414.340829095 520.783108758 c 0,20,21
 403.790064781 504.203336263 403.790064781 504.203336263 389.238844158 481.623855987 c 0,22,23
 372.976421244 456.38906181 372.976421244 456.38906181 355.713870678 438.551092892 c 128,-1,24
 338.560400876 420.825840763 338.560400876 420.825840763 319.030545521 407.040060512 c 0,25,26
 310.473793128 401 310.473793128 401 300 401 c 2,27,-1
 100 401 l 1,28,-1
 67 401 l 1,29,-1
 67 434 l 1,30,-1
 67 467 l 1,31,-1
 100 467 l 1,32,-1
 267 467 l 1,33,-1
 267 801 l 1,34,-1
 100 801 l 1,35,-1
 67 801 l 1,36,-1
 67 834 l 1,37,-1
 67 867 l 1,38,-1
 100 867 l 1,39,-1
 300 867 l 2,40,41
 312.36111854 867 312.36111854 867 321.680283272 858.879013591 c 0,42,43
 385.18799954 803.536575129 385.18799954 803.536575129 428.513328401 720.67678364 c 1,44,45
 435.071484151 739.383877153 435.071484151 739.383877153 437.35267424 745.901564016 c 0,46,47
 440.694003249 755.448218329 440.694003249 755.448218329 454.048593464 797.490446782 c 0,48,49
 466.523153727 836.762210574 466.523153727 836.762210574 468.027730732 842.173408573 c 2,50,-1
 475.988973121 874.018378131 l 1,51,-1
 508.003675626 866.014702505 l 1,0,-1
395.712739096 634.240967578 m 1,52,53
 389.820117273 648.28689924 389.820117273 648.28689924 383.895105392 661.483516706 c 0,54,55
 361.905472739 710.460425798 361.905472739 710.460425798 333 749.498004518 c 1,56,-1
 333 516.200934708 l 2,57,58
 333.380577864 516.785591978 333.380577864 516.785591978 333.761155842 517.376144013 c 0,59,60
 348.209935219 539.796663737 348.209935219 539.796663737 358.659170905 556.216891242 c 0,61,62
 367.789427051 570.564436615 367.789427051 570.564436615 380.766807948 600.227021523 c 0,63,64
 389.781015186 620.830923781 389.781015186 620.830923781 395.712739096 634.240967578 c 1,52,53
EndSplineSet
EndChar

StartChar: NameMe.212
Encoding: 212 -1 168
Width: 600
VWidth: 0
Flags: W
HStem: 401 66<333 533> 601 66<333 467> 801 66<133 267 333 467>
VStem: 67 66<401 801> 267 66<467 601 667 801> 467 66<667 801>
CounterMasks: 1 fc
LayerCount: 2
Back
SplineSet
300 634 m 5
 500 634 l 5
 500 834 l 5
 300 834 l 5
 100 834 l 5
 100 434 l 1052
500 434 m 5
 300 434 l 5
 300 834 l 1029
EndSplineSet
Fore
SplineSet
533 434 m 1,0,-1
 533 401 l 1,1,-1
 500 401 l 1,2,-1
 300 401 l 2,3,4
 286 401 286 401 276.5 411.5 c 128,-1,5
 267 422 267 422 267 434 c 2,6,-1
 267 601 l 1,7,-1
 267 634 l 1,8,-1
 267 667 l 1,9,-1
 267 801 l 1,10,-1
 133 801 l 1,11,-1
 133 434 l 1,12,-1
 133 401 l 1,13,-1
 100 401 l 1,14,-1
 67 401 l 1,15,-1
 67 434 l 1,16,-1
 67 834 l 2,17,18
 67 846 67 846 76.5 856.5 c 128,-1,19
 86 867 86 867 100 867 c 2,20,-1
 267 867 l 1,21,-1
 300 867 l 1,22,-1
 333 867 l 1,23,-1
 500 867 l 2,24,25
 512 867 512 867 522.5 857.5 c 128,-1,26
 533 848 533 848 533 834 c 2,27,-1
 533 634 l 2,28,29
 533 622 533 622 523.5 611.5 c 128,-1,30
 514 601 514 601 500 601 c 2,31,-1
 333 601 l 1,32,-1
 333 467 l 1,33,-1
 500 467 l 1,34,-1
 533 467 l 1,35,-1
 533 434 l 1,0,-1
333 801 m 1,36,-1
 333 667 l 1,37,-1
 467 667 l 1,38,-1
 467 801 l 1,39,-1
 333 801 l 1,36,-1
EndSplineSet
EndChar

StartChar: NameMe.244
Encoding: 244 -1 169
Width: 600
VWidth: 0
Flags: W
HStem: 401 9.72585G<67 133 285.242 324.758 475.242 514.758> 801 66<133 279.605> 858.274 20G<475.242 514.758>
VStem: 67 66<401 801>
LayerCount: 2
Back
SplineSet
500 434 m 5
 455.845350119 585.446981514 403.234875539 743.620194639 300 834 c 5
 100 834 l 5
 100 434 l 1052
500 834 m 5
 455.418644037 696.193052235 401.646231 507.274530895 300 434 c 13
 300 801 l 1053
EndSplineSet
Fore
SplineSet
508.003675626 866.014702505 m 1,0,-1
 540.018378131 858.011026879 l 1,1,-1
 532.014702505 825.996324374 l 2,2,3
 530.764151902 820.994121963 530.764151902 820.994121963 516.951406536 777.509553218 c 0,4,5
 503.30599675 734.551781671 503.30599675 734.551781671 499.64732576 724.098435984 c 0,6,7
 496.137782027 714.071168174 496.137782027 714.071168174 482.641015425 675.580423163 c 0,8,9
 473.452862602 649.37717252 473.452862602 649.37717252 467.250126819 633.589707118 c 1,10,11
 500.083928867 550.817305991 500.083928867 550.817305991 531.662585026 443.299500497 c 2,12,-1
 540.962085523 411.636915471 l 1,13,-1
 509.299500497 402.337414974 l 1,14,-1
 477.636915471 393.037914477 l 1,15,-1
 468.337414974 424.700499503 l 2,16,17
 448.862136416 491.009186022 448.862136416 491.009186022 429.007343806 547.36647595 c 1,18,19
 421.154605267 531.490471308 421.154605267 531.490471308 414.340829095 520.783108758 c 0,20,21
 403.790064781 504.203336263 403.790064781 504.203336263 389.238844158 481.623855987 c 0,22,23
 372.976421244 456.38906181 372.976421244 456.38906181 355.713870678 438.551092892 c 128,-1,24
 338.560400876 420.825840763 338.560400876 420.825840763 319.030545521 407.040060512 c 0,25,26
 307.407788959 398.835761763 307.407788959 398.835761763 293.152496947 401.874230819 c 128,-1,27
 278.897204935 404.912699876 278.897204935 404.912699876 271.630083607 417.143314565 c 0,28,29
 267 424.93577681 267 424.93577681 267 434 c 2,30,-1
 267 801 l 1,31,-1
 133 801 l 1,32,-1
 133 434 l 1,33,-1
 133 401 l 1,34,-1
 100 401 l 1,35,-1
 67 401 l 1,36,-1
 67 434 l 1,37,-1
 67 834 l 2,38,39
 67 846 67 846 76.5 856.5 c 128,-1,40
 86 867 86 867 100 867 c 2,41,-1
 300 867 l 2,42,43
 312.36111854 867 312.36111854 867 321.680283272 858.879013591 c 0,44,45
 385.18799954 803.536575129 385.18799954 803.536575129 428.513328401 720.67678364 c 1,46,47
 435.071484151 739.383877153 435.071484151 739.383877153 437.35267424 745.901564016 c 0,48,49
 440.694003249 755.448218329 440.694003249 755.448218329 454.048593464 797.490446782 c 0,50,51
 466.523153727 836.762210574 466.523153727 836.762210574 468.027730732 842.173408573 c 2,52,-1
 475.988973121 874.018378131 l 1,53,-1
 508.003675626 866.014702505 l 1,0,-1
333 749.498004518 m 1,54,-1
 333 516.200493868 l 2,55,56
 333.314639374 516.683273632 333.314639374 516.683273632 333.761155842 517.376144013 c 0,57,58
 348.209935219 539.796663737 348.209935219 539.796663737 358.659170905 556.216891242 c 0,59,60
 367.789427051 570.564436615 367.789427051 570.564436615 380.766807948 600.227021523 c 0,61,62
 389.781015186 620.830923781 389.781015186 620.830923781 395.712739096 634.240967578 c 1,63,64
 389.820117273 648.28689924 389.820117273 648.28689924 383.895105392 661.483516706 c 0,65,66
 361.905472739 710.460425798 361.905472739 710.460425798 333 749.498004518 c 1,54,-1
EndSplineSet
EndChar

StartChar: NameMe.209
Encoding: 209 -1 170
Width: 600
VWidth: 0
Flags: W
HStem: 401 66<133 267 333 533> 601 66<333 467> 801 66<133 467>
VStem: 67 66<467 801> 267 66<467 601> 467 66<667 801>
CounterMasks: 1 fc
LayerCount: 2
Back
SplineSet
300 834 m 5
 500 834 l 5
 500 634 l 5
 300 634 l 13
 300 434 l 1053
300 834 m 5
 100 834 l 5
 100 434 l 5
 500 434 l 1029
EndSplineSet
Fore
SplineSet
267 801 m 1,0,-1
 133 801 l 1,1,-1
 133 467 l 1,2,-1
 267 467 l 1,3,-1
 267 634 l 2,4,5
 267 646 267 646 276.5 656.5 c 128,-1,6
 286 667 286 667 300 667 c 2,7,-1
 467 667 l 1,8,-1
 467 801 l 1,9,-1
 333 801 l 1,10,-1
 300 801 l 1,11,-1
 267 801 l 1,0,-1
267 401 m 1,12,-1
 100 401 l 2,13,14
 88 401 88 401 77.5 410.5 c 128,-1,15
 67 420 67 420 67 434 c 2,16,-1
 67 834 l 2,17,18
 67 846 67 846 76.5 856.5 c 128,-1,19
 86 867 86 867 100 867 c 2,20,-1
 267 867 l 1,21,-1
 300 867 l 1,22,-1
 333 867 l 1,23,-1
 500 867 l 2,24,25
 514 867 514 867 523.5 856.5 c 128,-1,26
 533 846 533 846 533 834 c 2,27,-1
 533 634 l 2,28,29
 533 620 533 620 522.5 610.5 c 128,-1,30
 512 601 512 601 500 601 c 2,31,-1
 333 601 l 1,32,-1
 333 467 l 1,33,-1
 500 467 l 1,34,-1
 533 467 l 1,35,-1
 533 434 l 1,36,-1
 533 401 l 1,37,-1
 500 401 l 1,38,-1
 333 401 l 1,39,-1
 300 401 l 1,40,-1
 267 401 l 1,12,-1
EndSplineSet
EndChar

StartChar: zy_by
Encoding: 227 -1 171
Width: 600
VWidth: 0
Flags: W
HStem: 401 66<133 267 333 533> 601 66<133 267> 801 66<333 533>
VStem: 67 66<467 601 667 867> 267 66<467 601 667 801>
CounterMasks: 1 e0
LayerCount: 2
Back
SplineSet
300 434.5 m 28
 300 834 l 29
 500 834 l 1053
500 434 m 5
 100 434 l 5
 100 834 l 1053
293 634 m 29
 100 634 l 1029
EndSplineSet
Fore
SplineSet
533 434 m 1,0,-1
 533 401 l 1,1,-1
 500 401 l 1,2,-1
 100 401 l 2,3,4
 86 401 86 401 76.5 411.5 c 128,-1,5
 67 422 67 422 67 434 c 2,6,-1
 67 601 l 1,7,-1
 67 634 l 1,8,-1
 67 667 l 1,9,-1
 67 834 l 1,10,-1
 67 867 l 1,11,-1
 100 867 l 1,12,-1
 133 867 l 1,13,-1
 133 834 l 1,14,-1
 133 667 l 1,15,-1
 267 667 l 1,16,-1
 267 834 l 2,17,18
 267 848 267 848 277.5 857.5 c 128,-1,19
 288 867 288 867 300 867 c 2,20,-1
 500 867 l 1,21,-1
 533 867 l 1,22,-1
 533 834 l 1,23,-1
 533 801 l 1,24,-1
 500 801 l 1,25,-1
 333 801 l 1,26,-1
 333 467 l 1,27,-1
 500 467 l 1,28,-1
 533 467 l 1,29,-1
 533 434 l 1,0,-1
133 601 m 1,30,-1
 133 467 l 1,31,-1
 267 467 l 1,32,-1
 267 601 l 1,33,-1
 133 601 l 1,30,-1
EndSplineSet
EndChar

StartChar: zy_gy
Encoding: 291 -1 172
Width: 600
VWidth: 0
Flags: W
HStem: 401 66.0825<133 267> 601 66<133 267> 847 20G<67 133 267 333>
VStem: 67 66<467.083 601 667 867> 267 66<467.418 552.901 713.669 867>
LayerCount: 2
Back
SplineSet
500 834 m 29
 299 633 l 29
 500 434 l 1053
100 834 m 29
 100 434 l 5
 300 434.5 l 28
 300 834 l 1053
293 634 m 29
 100 634 l 1029
EndSplineSet
Fore
SplineSet
100 867 m 1,0,-1
 133 867 l 1,1,-1
 133 834 l 1,2,-1
 133 667 l 1,3,-1
 267 667 l 1,4,-1
 267 834 l 1,5,-1
 267 867 l 1,6,-1
 300 867 l 1,7,-1
 333 867 l 1,8,-1
 333 834 l 1,9,-1
 333 713.669047558 l 1,10,-1
 476.665476221 857.334523779 l 1,11,-1
 500 880.669047558 l 1,12,-1
 523.334523779 857.334523779 l 1,13,-1
 546.669047558 834 l 1,14,-1
 523.334523779 810.665476221 l 1,15,-1
 345.786011857 633.116964299 l 1,16,-1
 523.217560943 457.450903264 l 1,17,-1
 546.668464206 434.233342321 l 1,18,-1
 523.450903264 410.782439057 l 1,19,-1
 500.233342321 387.331535794 l 1,20,-1
 476.782439057 410.549096736 l 1,21,-1
 333 552.900864758 l 1,22,-1
 333 434.5 l 2,23,24
 333 421.795505243 333 421.795505243 323.383158153 411.664908954 c 128,-1,25
 313.766316305 401.534312666 313.766316305 401.534312666 300.082499742 401.500103125 c 2,26,-1
 100.082499742 401.000103125 l 2,27,28
 88.3375747308 400.970740812 88.3375747308 400.970740812 77.6687873654 410.45398845 c 128,-1,29
 67 419.937236088 67 419.937236088 67 434 c 2,30,-1
 67 601 l 1,31,-1
 67 634 l 1,32,-1
 67 667 l 1,33,-1
 67 834 l 1,34,-1
 67 867 l 1,35,-1
 100 867 l 1,0,-1
267 601 m 1,36,-1
 133 601 l 1,37,-1
 133 467.082603125 l 1,38,-1
 267 467.417603125 l 1,39,-1
 267 601 l 1,36,-1
EndSplineSet
EndChar

StartChar: zy_my
Encoding: 323 -1 173
Width: 600
VWidth: 0
Flags: W
HStem: 401 66<133 267 333 467> 601 66<133 267> 801 66<333 467>
VStem: 67 66<467 601 667 867> 267 66<467 601 667 801> 467 66<467 801>
CounterMasks: 1 fc
LayerCount: 2
Back
SplineSet
300 434.5 m 28
 300 834 l 29
 500 834 l 29
 500 434 l 5
 100 434 l 5
 100 834 l 1053
293 634 m 29
 100 634 l 1029
EndSplineSet
Fore
SplineSet
333 467 m 1,0,-1
 467 467 l 1,1,-1
 467 801 l 1,2,-1
 333 801 l 1,3,-1
 333 467 l 1,0,-1
133 601 m 1,4,-1
 133 467 l 1,5,-1
 267 467 l 1,6,-1
 267 601 l 1,7,-1
 133 601 l 1,4,-1
133 667 m 1,8,-1
 267 667 l 1,9,-1
 267 834 l 2,10,11
 267 848 267 848 277.5 857.5 c 128,-1,12
 288 867 288 867 300 867 c 2,13,-1
 500 867 l 2,14,15
 514 867 514 867 523.5 856.5 c 128,-1,16
 533 846 533 846 533 834 c 2,17,-1
 533 434 l 2,18,19
 533 420 533 420 522.5 410.5 c 128,-1,20
 512 401 512 401 500 401 c 2,21,-1
 300 401 l 1,22,-1
 100 401 l 2,23,24
 86 401 86 401 76.5 411.5 c 128,-1,25
 67 422 67 422 67 434 c 2,26,-1
 67 601 l 1,27,-1
 67 634 l 1,28,-1
 67 667 l 1,29,-1
 67 834 l 1,30,-1
 67 867 l 1,31,-1
 100 867 l 1,32,-1
 133 867 l 1,33,-1
 133 834 l 1,34,-1
 133 667 l 1,8,-1
EndSplineSet
EndChar

StartChar: NameMe.186
Encoding: 266 12435 174
Width: 0
VWidth: 230
Flags: W
HStem: -142.99 60<84.9161 375.01 435.01 785.01>
VStem: 24.0001 59.9997<-82.9902 239.916> 375.01 60<-265.99 -142.99>
AnchorPoint: "Above" 0 0 mark 0
LayerCount: 2
Fore
SplineSet
53.9062141773 240.009619028 m 1,0,-1
 83.9060675806 240.103404851 l 1,1,-1
 83.9998534033 210.103551448 l 1,2,-1
 84.9161259415 -82.990234375 l 1,3,-1
 375.009765625 -82.990234375 l 1,4,-1
 405.009765625 -82.990234375 l 1,5,-1
 435.009765625 -82.990234375 l 1,6,-1
 755.009765625 -82.990234375 l 1,7,-1
 785.009765625 -82.990234375 l 1,8,-1
 785.009765625 -112.990234375 l 1,9,-1
 785.009765625 -142.990234375 l 1,10,-1
 755.009765625 -142.990234375 l 1,11,-1
 435.009765625 -142.990234375 l 1,12,-1
 435.009765625 -235.990234375 l 1,13,-1
 435.009765625 -265.990234375 l 1,14,-1
 405.009765625 -265.990234375 l 1,15,-1
 375.009765625 -265.990234375 l 1,16,-1
 375.009765625 -235.990234375 l 1,17,-1
 375.009765625 -142.990234375 l 1,18,-1
 55.009765625 -142.990234375 l 2,19,20
 43.4787030304 -142.990234375 43.4787030304 -142.990234375 34.26375 -134.256280165 c 128,-1,21
 25.0487969696 -125.522325955 25.0487969696 -125.522325955 25.0099122217 -113.084020198 c 2,22,-1
 24.0001465967 209.915979802 l 1,23,-1
 23.906360774 239.915833206 l 1,24,-1
 53.9062141773 240.009619028 l 1,0,-1
EndSplineSet
EndChar

StartChar: NameMe.181
Encoding: 267 12356 175
Width: 0
VWidth: 230
Flags: W
HStem: -142.99 60<84.9161 375.01 435.01 785.01>
VStem: 24.0001 59.9997<-82.9902 239.916> 375.01 60<-265.99 -142.99>
AnchorPoint: "Above" 0 0 mark 0
LayerCount: 2
Fore
SplineSet
53.9062141773 240.009619028 m 1,0,-1
 83.9060675806 240.103404851 l 1,1,-1
 83.9998534033 210.103551448 l 1,2,-1
 84.9161259415 -82.990234375 l 1,3,-1
 375.009765625 -82.990234375 l 1,4,-1
 405.009765625 -82.990234375 l 1,5,-1
 435.009765625 -82.990234375 l 1,6,-1
 755.009765625 -82.990234375 l 1,7,-1
 785.009765625 -82.990234375 l 1,8,-1
 785.009765625 -112.990234375 l 1,9,-1
 785.009765625 -142.990234375 l 1,10,-1
 755.009765625 -142.990234375 l 1,11,-1
 435.009765625 -142.990234375 l 1,12,-1
 435.009765625 -235.990234375 l 1,13,-1
 435.009765625 -265.990234375 l 1,14,-1
 405.009765625 -265.990234375 l 1,15,-1
 375.009765625 -265.990234375 l 1,16,-1
 375.009765625 -235.990234375 l 1,17,-1
 375.009765625 -142.990234375 l 1,18,-1
 55.009765625 -142.990234375 l 2,19,20
 43.4787030304 -142.990234375 43.4787030304 -142.990234375 34.26375 -134.256280165 c 128,-1,21
 25.0487969696 -125.522325955 25.0487969696 -125.522325955 25.0099122217 -113.084020198 c 2,22,-1
 24.0001465967 209.915979802 l 1,23,-1
 23.906360774 239.915833206 l 1,24,-1
 53.9062141773 240.009619028 l 1,0,-1
EndSplineSet
EndChar

StartChar: NameMe.182
Encoding: 268 12358 176
Width: 0
VWidth: 230
Flags: W
HStem: -142.99 60<84.9161 375.01 435.01 785.01>
VStem: 24.0001 59.9997<-82.9902 239.916> 375.01 60<-265.99 -142.99>
AnchorPoint: "Above" 0 0 mark 0
LayerCount: 2
Fore
SplineSet
53.9062141773 240.009619028 m 1,0,-1
 83.9060675806 240.103404851 l 1,1,-1
 83.9998534033 210.103551448 l 1,2,-1
 84.9161259415 -82.990234375 l 1,3,-1
 375.009765625 -82.990234375 l 1,4,-1
 405.009765625 -82.990234375 l 1,5,-1
 435.009765625 -82.990234375 l 1,6,-1
 755.009765625 -82.990234375 l 1,7,-1
 785.009765625 -82.990234375 l 1,8,-1
 785.009765625 -112.990234375 l 1,9,-1
 785.009765625 -142.990234375 l 1,10,-1
 755.009765625 -142.990234375 l 1,11,-1
 435.009765625 -142.990234375 l 1,12,-1
 435.009765625 -235.990234375 l 1,13,-1
 435.009765625 -265.990234375 l 1,14,-1
 405.009765625 -265.990234375 l 1,15,-1
 375.009765625 -265.990234375 l 1,16,-1
 375.009765625 -235.990234375 l 1,17,-1
 375.009765625 -142.990234375 l 1,18,-1
 55.009765625 -142.990234375 l 2,19,20
 43.4787030304 -142.990234375 43.4787030304 -142.990234375 34.26375 -134.256280165 c 128,-1,21
 25.0487969696 -125.522325955 25.0487969696 -125.522325955 25.0099122217 -113.084020198 c 2,22,-1
 24.0001465967 209.915979802 l 1,23,-1
 23.906360774 239.915833206 l 1,24,-1
 53.9062141773 240.009619028 l 1,0,-1
EndSplineSet
EndChar

StartChar: NameMe.183
Encoding: 269 12363 177
Width: 0
VWidth: 230
Flags: W
HStem: -142.99 60<84.9161 375.01 435.01 785.01>
VStem: 24.0001 59.9997<-82.9902 239.916> 375.01 60<-265.99 -142.99>
AnchorPoint: "Above" 0 0 mark 0
LayerCount: 2
Fore
SplineSet
53.9062141773 240.009619028 m 1,0,-1
 83.9060675806 240.103404851 l 1,1,-1
 83.9998534033 210.103551448 l 1,2,-1
 84.9161259415 -82.990234375 l 1,3,-1
 375.009765625 -82.990234375 l 1,4,-1
 405.009765625 -82.990234375 l 1,5,-1
 435.009765625 -82.990234375 l 1,6,-1
 755.009765625 -82.990234375 l 1,7,-1
 785.009765625 -82.990234375 l 1,8,-1
 785.009765625 -112.990234375 l 1,9,-1
 785.009765625 -142.990234375 l 1,10,-1
 755.009765625 -142.990234375 l 1,11,-1
 435.009765625 -142.990234375 l 1,12,-1
 435.009765625 -235.990234375 l 1,13,-1
 435.009765625 -265.990234375 l 1,14,-1
 405.009765625 -265.990234375 l 1,15,-1
 375.009765625 -265.990234375 l 1,16,-1
 375.009765625 -235.990234375 l 1,17,-1
 375.009765625 -142.990234375 l 1,18,-1
 55.009765625 -142.990234375 l 2,19,20
 43.4787030304 -142.990234375 43.4787030304 -142.990234375 34.26375 -134.256280165 c 128,-1,21
 25.0487969696 -125.522325955 25.0487969696 -125.522325955 25.0099122217 -113.084020198 c 2,22,-1
 24.0001465967 209.915979802 l 1,23,-1
 23.906360774 239.915833206 l 1,24,-1
 53.9062141773 240.009619028 l 1,0,-1
EndSplineSet
EndChar

StartChar: NameMe.184
Encoding: 270 12375 178
Width: 0
VWidth: 230
Flags: W
HStem: -142.99 60<84.9161 375.01 435.01 785.01>
VStem: 24.0001 59.9997<-82.9902 239.916> 375.01 60<-265.99 -142.99>
AnchorPoint: "Above" 0 0 mark 0
LayerCount: 2
Fore
SplineSet
53.9062141773 240.009619028 m 1,0,-1
 83.9060675806 240.103404851 l 1,1,-1
 83.9998534033 210.103551448 l 1,2,-1
 84.9161259415 -82.990234375 l 1,3,-1
 375.009765625 -82.990234375 l 1,4,-1
 405.009765625 -82.990234375 l 1,5,-1
 435.009765625 -82.990234375 l 1,6,-1
 755.009765625 -82.990234375 l 1,7,-1
 785.009765625 -82.990234375 l 1,8,-1
 785.009765625 -112.990234375 l 1,9,-1
 785.009765625 -142.990234375 l 1,10,-1
 755.009765625 -142.990234375 l 1,11,-1
 435.009765625 -142.990234375 l 1,12,-1
 435.009765625 -235.990234375 l 1,13,-1
 435.009765625 -265.990234375 l 1,14,-1
 405.009765625 -265.990234375 l 1,15,-1
 375.009765625 -265.990234375 l 1,16,-1
 375.009765625 -235.990234375 l 1,17,-1
 375.009765625 -142.990234375 l 1,18,-1
 55.009765625 -142.990234375 l 2,19,20
 43.4787030304 -142.990234375 43.4787030304 -142.990234375 34.26375 -134.256280165 c 128,-1,21
 25.0487969696 -125.522325955 25.0487969696 -125.522325955 25.0099122217 -113.084020198 c 2,22,-1
 24.0001465967 209.915979802 l 1,23,-1
 23.906360774 239.915833206 l 1,24,-1
 53.9062141773 240.009619028 l 1,0,-1
EndSplineSet
EndChar

StartChar: NameMe.185
Encoding: 271 12398 179
Width: 0
VWidth: 230
Flags: W
HStem: -142.99 60<84.9161 375.01 435.01 785.01>
VStem: 24.0001 59.9997<-82.9902 239.916> 375.01 60<-265.99 -142.99>
AnchorPoint: "Above" 0 0 mark 0
LayerCount: 2
Fore
SplineSet
53.9062141773 240.009619028 m 1,0,-1
 83.9060675806 240.103404851 l 1,1,-1
 83.9998534033 210.103551448 l 1,2,-1
 84.9161259415 -82.990234375 l 1,3,-1
 375.009765625 -82.990234375 l 1,4,-1
 405.009765625 -82.990234375 l 1,5,-1
 435.009765625 -82.990234375 l 1,6,-1
 755.009765625 -82.990234375 l 1,7,-1
 785.009765625 -82.990234375 l 1,8,-1
 785.009765625 -112.990234375 l 1,9,-1
 785.009765625 -142.990234375 l 1,10,-1
 755.009765625 -142.990234375 l 1,11,-1
 435.009765625 -142.990234375 l 1,12,-1
 435.009765625 -235.990234375 l 1,13,-1
 435.009765625 -265.990234375 l 1,14,-1
 405.009765625 -265.990234375 l 1,15,-1
 375.009765625 -265.990234375 l 1,16,-1
 375.009765625 -235.990234375 l 1,17,-1
 375.009765625 -142.990234375 l 1,18,-1
 55.009765625 -142.990234375 l 2,19,20
 43.4787030304 -142.990234375 43.4787030304 -142.990234375 34.26375 -134.256280165 c 128,-1,21
 25.0487969696 -125.522325955 25.0487969696 -125.522325955 25.0099122217 -113.084020198 c 2,22,-1
 24.0001465967 209.915979802 l 1,23,-1
 23.906360774 239.915833206 l 1,24,-1
 53.9062141773 240.009619028 l 1,0,-1
EndSplineSet
EndChar

StartChar: NameMe.241
Encoding: 241 -1 180
Width: 600
VWidth: 0
Flags: W
LayerCount: 2
Back
SplineSet
500 434 m 5
 455.845350119 585.446981514 403.234875539 743.620194639 300 834 c 5
 100 834 l 5
 100 434 l 29
 300 434 l 5
 401.646231 507.274530895 455.418644037 696.193052235 500 834 c 1029
EndSplineSet
Fore
SplineSet
395.712427117 634.240387604 m 0,0,1
 392.570692036 641.723689594 392.570692036 641.723689594 389.567153161 648.638247966 c 0,2,3
 386.732455005 655.164111852 386.732455005 655.164111852 383.895105392 661.483516706 c 0,4,5
 345.92088292 746.062466758 345.92088292 746.062466758 287.322001551 801 c 1,6,-1
 133 801 l 1,7,-1
 133 467 l 1,8,-1
 289.047135383 467 l 1,9,10
 299.092984327 474.949323947 299.092984327 474.949323947 308.286129322 484.448907108 c 0,11,12
 321.023578756 497.61093819 321.023578756 497.61093819 333.761155842 517.376144013 c 0,13,14
 348.209935219 539.796663737 348.209935219 539.796663737 358.659170905 556.216891242 c 0,15,16
 367.789427051 570.564436615 367.789427051 570.564436615 380.766807948 600.227021523 c 0,17,18
 386.942496651 614.342881415 386.942496651 614.342881415 391.666270378 625.07070399 c 0,19,20
 393.817281419 629.955710373 393.817281419 629.955710373 395.712427117 634.240387604 c 0,0,1
428.512846647 720.675405414 m 1,21,22
 435.090729772 739.438865537 435.090729772 739.438865537 437.35267424 745.901564016 c 0,23,24
 440.694003249 755.448218329 440.694003249 755.448218329 454.048593464 797.490446782 c 0,25,26
 466.523153727 836.762210574 466.523153727 836.762210574 468.027730732 842.173408573 c 2,27,-1
 475.988973121 874.018378131 l 1,28,-1
 508.003675626 866.014702505 l 1,29,-1
 540.018378131 858.011026879 l 1,30,-1
 532.014702505 825.996324374 l 2,31,32
 530.764151902 820.994121963 530.764151902 820.994121963 516.951406536 777.509553218 c 0,33,34
 503.30599675 734.551781671 503.30599675 734.551781671 499.64732576 724.098435984 c 0,35,36
 496.137780683 714.071164334 496.137780683 714.071164334 482.641015425 675.580423163 c 0,37,38
 475.762248019 655.963197599 475.762248019 655.963197599 470.624856725 642.34911067 c 0,39,40
 468.943637722 637.893880311 468.943637722 637.893880311 467.254208025 633.583625068 c 0,41,42
 470.871054323 624.451169406 470.871054323 624.451169406 474.153459773 615.881759289 c 0,43,44
 503.399195782 539.529611494 503.399195782 539.529611494 531.662585026 443.299500497 c 2,45,-1
 540.962085523 411.636915471 l 1,46,-1
 509.299500497 402.337414974 l 1,47,-1
 477.636915471 393.037914477 l 1,48,-1
 468.337414974 424.700499503 l 2,49,50
 448.896297996 490.892873975 448.896297996 490.892873975 429.00917943 547.355500997 c 1,51,52
 421.119613991 531.435485023 421.119613991 531.435485023 414.340829095 520.783108758 c 0,53,54
 403.790064781 504.203336263 403.790064781 504.203336263 389.238844158 481.623855987 c 0,55,56
 372.976421244 456.38906181 372.976421244 456.38906181 355.713870678 438.551092892 c 128,-1,57
 338.560400876 420.825840763 338.560400876 420.825840763 319.030545521 407.040060512 c 0,58,59
 310.473793128 401 310.473793128 401 300 401 c 2,60,-1
 100 401 l 2,61,62
 88 401 88 401 77.5 410.5 c 128,-1,63
 67 420 67 420 67 434 c 2,64,-1
 67 834 l 2,65,66
 67 846 67 846 76.5 856.5 c 128,-1,67
 86 867 86 867 100 867 c 2,68,-1
 300 867 l 2,69,70
 312.36111854 867 312.36111854 867 321.680283272 858.879013591 c 0,71,72
 385.102847697 803.610778877 385.102847697 803.610778877 428.512846647 720.675405414 c 1,21,22
EndSplineSet
EndChar

StartChar: NameMe.240
Encoding: 240 -1 181
Width: 600
VWidth: 0
Flags: W
LayerCount: 2
Back
SplineSet
300 815 m 29
 300 450 l 1053
500 434 m 4
 472 529.333333333 443.333333333 609.666666667 414 675 c 4
 384.666666667 740.333333333 346.666666667 793.333333333 300 834 c 5
 100 834 l 5
 100 434 l 5
 300 434 l 5
 311.333333333 442 322 451.166666667 332 461.5 c 4
 342 471.833333333 351.833333333 484.5 361.5 499.5 c 4
 371.166666667 514.5 379.5 527.5 386.5 538.5 c 4
 393.5 549.5 401.666666667 565.666666667 411 587 c 4
 420.333333333 608.333333333 427.166666667 623.833333333 431.5 633.5 c 4
 435.833333333 643.166666667 442.5 660.833333333 451.5 686.5 c 4
 460.5 712.166666667 466.166666667 728.333333333 468.5 735 c 4
 470.833333333 741.666666667 476.5 759.166666667 485.5 787.5 c 4
 494.5 815.833333333 499.333333333 831.333333333 500 834 c 1028
EndSplineSet
Fore
SplineSet
395.712427117 634.240387604 m 0,0,1
 392.570692036 641.723689594 392.570692036 641.723689594 389.567153161 648.638247966 c 0,2,3
 386.732455005 655.164111852 386.732455005 655.164111852 383.895105392 661.483516706 c 0,4,5
 361.905472739 710.460425798 361.905472739 710.460425798 333 749.498004518 c 1,6,-1
 333 516.200934708 l 2,7,8
 333.380577864 516.785591978 333.380577864 516.785591978 333.761155842 517.376144013 c 0,9,10
 348.209935219 539.796663737 348.209935219 539.796663737 358.659170905 556.216891242 c 0,11,12
 367.789427051 570.564436615 367.789427051 570.564436615 380.766807948 600.227021523 c 0,13,14
 386.942496651 614.342881415 386.942496651 614.342881415 391.666270378 625.07070399 c 0,15,16
 393.817281419 629.955710373 393.817281419 629.955710373 395.712427117 634.240387604 c 0,0,1
428.512846647 720.675405414 m 1,17,18
 435.090729772 739.438865537 435.090729772 739.438865537 437.35267424 745.901564016 c 0,19,20
 440.694003249 755.448218329 440.694003249 755.448218329 454.048593464 797.490446782 c 0,21,22
 466.523153727 836.762210574 466.523153727 836.762210574 468.027730732 842.173408573 c 2,23,-1
 475.988973121 874.018378131 l 1,24,-1
 508.003675626 866.014702505 l 1,25,-1
 540.018378131 858.011026879 l 1,26,-1
 532.014702505 825.996324374 l 2,27,28
 530.764151902 820.994121963 530.764151902 820.994121963 516.951406536 777.509553218 c 0,29,30
 503.30599675 734.551781671 503.30599675 734.551781671 499.64732576 724.098435984 c 0,31,32
 496.137780683 714.071164334 496.137780683 714.071164334 482.641015425 675.580423163 c 0,33,34
 475.762248019 655.963197599 475.762248019 655.963197599 470.624856725 642.34911067 c 0,35,36
 468.943637722 637.893880311 468.943637722 637.893880311 467.254208025 633.583625068 c 0,37,38
 470.871054323 624.451169406 470.871054323 624.451169406 474.153459773 615.881759289 c 0,39,40
 503.399195782 539.529611494 503.399195782 539.529611494 531.662585026 443.299500497 c 2,41,-1
 540.962085523 411.636915471 l 1,42,-1
 509.299500497 402.337414974 l 1,43,-1
 477.636915471 393.037914477 l 1,44,-1
 468.337414974 424.700499503 l 2,45,46
 448.896297996 490.892873975 448.896297996 490.892873975 429.00917943 547.355500997 c 1,47,48
 421.119613991 531.435485023 421.119613991 531.435485023 414.340829095 520.783108758 c 0,49,50
 403.790064781 504.203336263 403.790064781 504.203336263 389.238844158 481.623855987 c 0,51,52
 372.976421244 456.38906181 372.976421244 456.38906181 355.713870678 438.551092892 c 0,53,54
 344.834862335 427.309450938 344.834862335 427.309450938 333 417.652383472 c 1,55,-1
 333 417 l 1,56,-1
 332.197170955 417 l 1,57,58
 325.754711092 411.786530327 325.754711092 411.786530327 319.030545521 407.040060512 c 0,59,60
 310.473793128 401 310.473793128 401 300 401 c 2,61,-1
 100 401 l 2,62,63
 88 401 88 401 77.5 410.5 c 128,-1,64
 67 420 67 420 67 434 c 2,65,-1
 67 834 l 2,66,67
 67 846 67 846 76.5 856.5 c 128,-1,68
 86 867 86 867 100 867 c 2,69,-1
 300 867 l 2,70,71
 312.36111854 867 312.36111854 867 321.680283272 858.879013591 c 0,72,73
 385.102847697 803.610778877 385.102847697 803.610778877 428.512846647 720.675405414 c 1,17,18
267 801 m 1,74,-1
 133 801 l 1,75,-1
 133 467 l 1,76,-1
 267 467 l 1,77,-1
 267 801 l 1,74,-1
EndSplineSet
EndChar

StartChar: NameMe.208
Encoding: 208 -1 182
Width: 600
VWidth: 0
Flags: W
LayerCount: 2
Back
SplineSet
300 820 m 29
 300 634 l 1053
300 834 m 5
 500 834 l 5
 500 634 l 5
 300 634 l 13
 300 434 l 1053
300 834 m 5
 100 834 l 5
 100 434 l 5
 500 434 l 1029
EndSplineSet
Fore
SplineSet
267 467 m 1,0,-1
 267 601 l 1,1,-1
 267 634 l 1,2,-1
 267 801 l 1,3,-1
 133 801 l 1,4,-1
 133 467 l 1,5,-1
 267 467 l 1,0,-1
267 401 m 1,6,-1
 100 401 l 2,7,8
 88 401 88 401 77.5 410.5 c 128,-1,9
 67 420 67 420 67 434 c 2,10,-1
 67 834 l 2,11,12
 67 846 67 846 76.5 856.5 c 128,-1,13
 86 867 86 867 100 867 c 2,14,-1
 267 867 l 1,15,-1
 300 867 l 1,16,-1
 333 867 l 1,17,-1
 500 867 l 2,18,19
 514 867 514 867 523.5 856.5 c 128,-1,20
 533 846 533 846 533 834 c 2,21,-1
 533 634 l 2,22,23
 533 620 533 620 522.5 610.5 c 128,-1,24
 512 601 512 601 500 601 c 2,25,-1
 333 601 l 1,26,-1
 333 467 l 1,27,-1
 500 467 l 1,28,-1
 533 467 l 1,29,-1
 533 434 l 1,30,-1
 533 401 l 1,31,-1
 500 401 l 1,32,-1
 333 401 l 1,33,-1
 300 401 l 1,34,-1
 267 401 l 1,6,-1
333 667 m 1,35,-1
 467 667 l 1,36,-1
 467 801 l 1,37,-1
 333 801 l 1,38,-1
 333 667 l 1,35,-1
EndSplineSet
EndChar

StartChar: NameMe.214
Encoding: 214 -1 183
Width: 600
VWidth: 0
Flags: W
LayerCount: 2
Back
SplineSet
100 700 m 5
 366 700 l 1053
100 434 m 21
 167 434 234.981309883 513.263987334 233 634 c 1037
366 834 m 29
 500 834 l 5
 500 434 l 5
 366 434 l 21
 300 434 234 513 233 634 c 5
 233 834 l 1053
EndSplineSet
Fore
SplineSet
333 834 m 1,0,-1
 333 867 l 1,1,-1
 366 867 l 1,2,-1
 500 867 l 2,3,4
 514 867 514 867 523.5 856.5 c 128,-1,5
 533 846 533 846 533 834 c 2,6,-1
 533 434 l 2,7,8
 533 420 533 420 522.5 410.5 c 128,-1,9
 512 401 512 401 500 401 c 2,10,-1
 366 401 l 2,11,12
 296.929900819 401 296.929900819 401 247.066508611 471.432041494 c 0,13,14
 239.885722842 481.574901392 239.885722842 481.574901392 233.799834944 492.513568699 c 1,15,16
 227.647727639 481.49537041 227.647727639 481.49537041 220.321092031 471.274261464 c 0,17,18
 169.94750638 401 169.94750638 401 100 401 c 2,19,-1
 67 401 l 1,20,-1
 67 434 l 1,21,-1
 67 467 l 1,22,-1
 100 467 l 2,23,24
 136.05249362 467 136.05249362 467 166.678907969 509.725738536 c 0,25,26
 200.877872935 557.435405712 200.877872935 557.435405712 200.002179729 633.62071471 c 0,27,28
 200.002179729 633.7155329 200.002179729 633.7155329 200 633.810351091 c 2,29,-1
 199.622894438 666.618534981 l 1,30,-1
 200 666.622869528 l 1,31,-1
 200 667 l 1,32,-1
 100 667 l 1,33,-1
 67 667 l 1,34,-1
 67 700 l 1,35,-1
 67 733 l 1,36,-1
 100 733 l 1,37,-1
 200 733 l 1,38,-1
 200 834 l 1,39,-1
 200 867 l 1,40,-1
 233 867 l 1,41,-1
 266 867 l 1,42,-1
 266 834 l 1,43,-1
 266 733 l 1,44,-1
 366 733 l 1,45,-1
 399 733 l 1,46,-1
 399 700 l 1,47,-1
 399 667 l 1,48,-1
 366 667 l 1,49,-1
 266 667 l 1,50,-1
 266 634.189648909 l 2,51,52
 266.879545889 557.669156524 266.879545889 557.669156524 300.933491389 509.567958506 c 0,53,54
 331.070099181 467 331.070099181 467 366 467 c 2,55,-1
 467 467 l 1,56,-1
 467 801 l 1,57,-1
 366 801 l 1,58,-1
 333 801 l 1,59,-1
 333 834 l 1,0,-1
EndSplineSet
EndChar

StartChar: NameMe.246
Encoding: 246 -1 184
Width: 600
VWidth: 0
Flags: W
LayerCount: 2
Back
SplineSet
100 700 m 5
 366 700 l 1053
100 434 m 21
 167 434 234.981309883 513.263987334 233 634 c 1037
233 834 m 29
 233 634 l 5
 234 513 300 434 366 434 c 13
 366 834 l 29
 500 834 l 13
 500 434 l 1053
EndSplineSet
Fore
SplineSet
233 867 m 1,0,-1
 266 867 l 1,1,-1
 266 834 l 1,2,-1
 266 733 l 1,3,-1
 333 733 l 1,4,-1
 333 834 l 2,5,6
 333 848 333 848 343.5 857.5 c 128,-1,7
 354 867 354 867 366 867 c 2,8,-1
 500 867 l 2,9,10
 514 867 514 867 523.5 856.5 c 128,-1,11
 533 846 533 846 533 834 c 2,12,-1
 533 434 l 1,13,-1
 533 401 l 1,14,-1
 500 401 l 1,15,-1
 467 401 l 1,16,-1
 467 434 l 1,17,-1
 467 801 l 1,18,-1
 399 801 l 1,19,-1
 399 733 l 1,20,-1
 399 700 l 1,21,-1
 399 667 l 1,22,-1
 399 434 l 2,23,24
 399 422 399 422 389.5 411.5 c 128,-1,25
 380 401 380 401 366 401 c 0,26,27
 296.929900819 401 296.929900819 401 247.066508611 471.432041494 c 0,28,29
 239.885722842 481.574901392 239.885722842 481.574901392 233.799834944 492.513568699 c 1,30,31
 227.647727639 481.49537041 227.647727639 481.49537041 220.321092031 471.274261464 c 0,32,33
 169.94750638 401 169.94750638 401 100 401 c 2,34,-1
 67 401 l 1,35,-1
 67 434 l 1,36,-1
 67 467 l 1,37,-1
 100 467 l 2,38,39
 136.05249362 467 136.05249362 467 166.678907969 509.725738536 c 0,40,41
 200.877872935 557.435405712 200.877872935 557.435405712 200.002179729 633.62071471 c 0,42,43
 200.002179729 633.7155329 200.002179729 633.7155329 200 633.810351091 c 2,44,-1
 199.622894438 666.618534981 l 1,45,-1
 200 666.622869528 l 1,46,-1
 200 667 l 1,47,-1
 100 667 l 1,48,-1
 67 667 l 1,49,-1
 67 700 l 1,50,-1
 67 733 l 1,51,-1
 100 733 l 1,52,-1
 200 733 l 1,53,-1
 200 834 l 1,54,-1
 200 867 l 1,55,-1
 233 867 l 1,0,-1
266 667 m 1,56,-1
 266 634.189648909 l 2,57,58
 266.879545889 557.669156524 266.879545889 557.669156524 300.933491389 509.567958506 c 0,59,60
 316.396532589 487.726412811 316.396532589 487.726412811 333 477.042734204 c 1,61,-1
 333 667 l 1,62,-1
 266 667 l 1,56,-1
EndSplineSet
EndChar

StartChar: NameMe.278
Encoding: 278 -1 185
Width: 600
VWidth: 0
Flags: W
LayerCount: 2
Back
SplineSet
366 566 m 29
 500 566 l 1053
100 700 m 5
 366 700 l 1053
100 434 m 21
 167 434 234.981309883 513.263987334 233 634 c 1037
233 834 m 29
 233 634 l 5
 234 513 300 434 366 434 c 13
 500 434 l 29
 500 834 l 29
 366 834 l 1053
EndSplineSet
Fore
SplineSet
233 867 m 1,0,-1
 266 867 l 1,1,-1
 266 834 l 1,2,-1
 266 733 l 1,3,-1
 366 733 l 1,4,-1
 399 733 l 1,5,-1
 399 700 l 1,6,-1
 399 667 l 1,7,-1
 366 667 l 1,8,-1
 266 667 l 1,9,-1
 266 634.189648909 l 2,10,11
 266.879545889 557.669156524 266.879545889 557.669156524 300.933491389 509.567958506 c 0,12,13
 331.070099181 467 331.070099181 467 366 467 c 2,14,-1
 467 467 l 1,15,-1
 467 533 l 1,16,-1
 366 533 l 1,17,-1
 333 533 l 1,18,-1
 333 566 l 1,19,-1
 333 599 l 1,20,-1
 366 599 l 1,21,-1
 467 599 l 1,22,-1
 467 801 l 1,23,-1
 366 801 l 1,24,-1
 333 801 l 1,25,-1
 333 834 l 1,26,-1
 333 867 l 1,27,-1
 366 867 l 1,28,-1
 500 867 l 2,29,30
 512 867 512 867 522.5 857.5 c 128,-1,31
 533 848 533 848 533 834 c 2,32,-1
 533 599 l 1,33,-1
 533 566 l 1,34,-1
 533 533 l 1,35,-1
 533 434 l 2,36,37
 533 422 533 422 523.5 411.5 c 128,-1,38
 514 401 514 401 500 401 c 2,39,-1
 366 401 l 2,40,41
 296.929900819 401 296.929900819 401 247.066508611 471.432041494 c 0,42,43
 239.885722842 481.574901392 239.885722842 481.574901392 233.799834944 492.513568699 c 1,44,45
 227.647727639 481.49537041 227.647727639 481.49537041 220.321092031 471.274261464 c 0,46,47
 169.94750638 401 169.94750638 401 100 401 c 2,48,-1
 67 401 l 1,49,-1
 67 434 l 1,50,-1
 67 467 l 1,51,-1
 100 467 l 2,52,53
 136.05249362 467 136.05249362 467 166.678907969 509.725738536 c 0,54,55
 200.877872935 557.435405712 200.877872935 557.435405712 200.002179729 633.62071471 c 0,56,57
 200.002179729 633.7155329 200.002179729 633.7155329 200 633.810351091 c 2,58,-1
 199.622894438 666.618534981 l 1,59,-1
 200 666.622869528 l 1,60,-1
 200 667 l 1,61,-1
 100 667 l 1,62,-1
 67 667 l 1,63,-1
 67 700 l 1,64,-1
 67 733 l 1,65,-1
 100 733 l 1,66,-1
 200 733 l 1,67,-1
 200 834 l 1,68,-1
 200 867 l 1,69,-1
 233 867 l 1,0,-1
EndSplineSet
EndChar

StartChar: NameMe.310
Encoding: 310 -1 186
Width: 600
VWidth: 0
Flags: W
LayerCount: 2
Back
SplineSet
100 634 m 5
 366 634 l 1053
100 434 m 21
 167 434 234.981309883 513.263987334 233 634 c 1037
233 834 m 29
 233 634 l 5
 234 513 300 434 366 434 c 5
 500 634 l 29
 366 833 l 1053
EndSplineSet
Fore
SplineSet
233 867 m 1,0,-1
 266 867 l 1,1,-1
 266 834 l 1,2,-1
 266 667 l 1,3,-1
 366 667 l 1,4,-1
 399 667 l 1,5,-1
 399 634 l 1,6,-1
 399 601 l 1,7,-1
 366 601 l 1,8,-1
 268.098420668 601 l 1,9,10
 274.588838427 546.779780815 274.588838427 546.779780815 300.933491389 509.567958506 c 0,11,12
 324.193157388 476.713680283 324.193157388 476.713680283 349.88888392 469.240403606 c 1,13,-1
 460.246916047 633.953884392 l 1,14,-1
 338.627280845 814.56811876 l 1,15,-1
 320.195399605 841.940837915 l 1,16,-1
 347.56811876 860.372719155 l 1,17,-1
 374.940837915 878.804600395 l 1,18,-1
 393.372719155 851.43188124 l 1,19,-1
 527.372719155 652.43188124 l 2,20,21
 539.753083953 634.046115608 539.753083953 634.046115608 527.415409273 615.631675787 c 2,22,-1
 393.415409273 415.631675787 l 2,23,24
 383.612186496 401 383.612186496 401 366 401 c 0,25,26
 296.929900819 401 296.929900819 401 247.066508611 471.432041494 c 0,27,28
 239.885722842 481.574901392 239.885722842 481.574901392 233.799834944 492.513568699 c 1,29,30
 227.647727639 481.49537041 227.647727639 481.49537041 220.321092031 471.274261464 c 0,31,32
 169.94750638 401 169.94750638 401 100 401 c 2,33,-1
 67 401 l 1,34,-1
 67 434 l 1,35,-1
 67 467 l 1,36,-1
 100 467 l 2,37,38
 136.05249362 467 136.05249362 467 166.678907969 509.725738536 c 0,39,40
 193.237268628 546.776291061 193.237268628 546.776291061 198.642722719 601 c 1,41,-1
 100 601 l 1,42,-1
 67 601 l 1,43,-1
 67 634 l 1,44,-1
 67 667 l 1,45,-1
 100 667 l 1,46,-1
 200 667 l 1,47,-1
 200 834 l 1,48,-1
 200 867 l 1,49,-1
 233 867 l 1,0,-1
EndSplineSet
EndChar

StartChar: NameMe.342
Encoding: 342 -1 187
Width: 600
VWidth: 0
Flags: W
LayerCount: 2
Back
SplineSet
100 634 m 5
 366 634 l 1053
100 434 m 21
 167 434 234.981309883 513.263987334 233 634 c 1037
233 834 m 29
 233 634 l 5
 234 513 300 434 366 434 c 5
 500 434 l 29
 500 834 l 29
 366 834 l 29
 366 434 l 1053
EndSplineSet
Fore
SplineSet
399 467 m 1,0,-1
 467 467 l 1,1,-1
 467 801 l 1,2,-1
 399 801 l 1,3,-1
 399 667 l 1,4,-1
 399 634 l 1,5,-1
 399 601 l 1,6,-1
 399 467 l 1,0,-1
67 434 m 1,7,-1
 67 467 l 1,8,-1
 100 467 l 2,9,10
 136.05249362 467 136.05249362 467 166.678907969 509.725738536 c 0,11,12
 193.237268628 546.776291061 193.237268628 546.776291061 198.642722719 601 c 1,13,-1
 100 601 l 1,14,-1
 67 601 l 1,15,-1
 67 634 l 1,16,-1
 67 667 l 1,17,-1
 100 667 l 1,18,-1
 200 667 l 1,19,-1
 200 834 l 1,20,-1
 200 867 l 1,21,-1
 233 867 l 1,22,-1
 266 867 l 1,23,-1
 266 834 l 1,24,-1
 266 667 l 1,25,-1
 333 667 l 1,26,-1
 333 834 l 2,27,28
 333 846 333 846 342.5 856.5 c 128,-1,29
 352 867 352 867 366 867 c 2,30,-1
 500 867 l 2,31,32
 512 867 512 867 522.5 857.5 c 128,-1,33
 533 848 533 848 533 834 c 2,34,-1
 533 434 l 2,35,36
 533 422 533 422 523.5 411.5 c 128,-1,37
 514 401 514 401 500 401 c 2,38,-1
 366 401 l 1,39,-1
 333 401 l 1,40,-1
 333 405.429025541 l 1,41,42
 284.076657242 419.155206552 284.076657242 419.155206552 247.066508611 471.432041494 c 0,43,44
 239.885722842 481.574901392 239.885722842 481.574901392 233.799834944 492.513568699 c 1,45,46
 227.647727639 481.49537041 227.647727639 481.49537041 220.321092031 471.274261464 c 0,47,48
 169.94750638 401 169.94750638 401 100 401 c 2,49,-1
 67 401 l 1,50,-1
 67 434 l 1,7,-1
333 601 m 1,51,-1
 268.098420668 601 l 1,52,53
 274.588838427 546.779780815 274.588838427 546.779780815 300.933491389 509.567958506 c 0,54,55
 316.396532589 487.726412811 316.396532589 487.726412811 333 477.042734204 c 1,56,-1
 333 601 l 1,51,-1
EndSplineSet
EndChar

StartChar: NameMe.374
Encoding: 374 -1 189
Width: 600
VWidth: 0
Flags: W
LayerCount: 2
Back
SplineSet
100 634 m 5
 496 634 l 1053
100 434 m 21
 167 434 234.981309883 513.263987334 233 634 c 1037
233 834 m 29
 233 634 l 5
 234 513 300 434 366 434 c 5
 500 434 l 29
 500 834 l 29
 366 834 l 29
 366 434 l 1053
EndSplineSet
Fore
SplineSet
399 467 m 1,0,-1
 467 467 l 1,1,-1
 467 601 l 1,2,-1
 399 601 l 1,3,-1
 399 467 l 1,0,-1
67 434 m 1,4,-1
 67 467 l 1,5,-1
 100 467 l 2,6,7
 136.05249362 467 136.05249362 467 166.678907969 509.725738536 c 0,8,9
 193.237268628 546.776291061 193.237268628 546.776291061 198.642722719 601 c 1,10,-1
 100 601 l 1,11,-1
 67 601 l 1,12,-1
 67 634 l 1,13,-1
 67 667 l 1,14,-1
 100 667 l 1,15,-1
 200 667 l 1,16,-1
 200 834 l 1,17,-1
 200 867 l 1,18,-1
 233 867 l 1,19,-1
 266 867 l 1,20,-1
 266 834 l 1,21,-1
 266 667 l 1,22,-1
 333 667 l 1,23,-1
 333 834 l 2,24,25
 333 846 333 846 342.5 856.5 c 128,-1,26
 352 867 352 867 366 867 c 2,27,-1
 500 867 l 2,28,29
 512 867 512 867 522.5 857.5 c 128,-1,30
 533 848 533 848 533 834 c 2,31,-1
 533 434 l 2,32,33
 533 422 533 422 523.5 411.5 c 128,-1,34
 514 401 514 401 500 401 c 2,35,-1
 366 401 l 1,36,-1
 333 401 l 1,37,-1
 333 405.429025541 l 1,38,39
 284.076657242 419.155206552 284.076657242 419.155206552 247.066508611 471.432041494 c 0,40,41
 239.885722842 481.574901392 239.885722842 481.574901392 233.799834944 492.513568699 c 1,42,43
 227.647727639 481.49537041 227.647727639 481.49537041 220.321092031 471.274261464 c 0,44,45
 169.94750638 401 169.94750638 401 100 401 c 2,46,-1
 67 401 l 1,47,-1
 67 434 l 1,4,-1
333 601 m 1,48,-1
 268.098420668 601 l 1,49,50
 274.588838427 546.779780815 274.588838427 546.779780815 300.933491389 509.567958506 c 0,51,52
 316.396532589 487.726412811 316.396532589 487.726412811 333 477.042734204 c 1,53,-1
 333 601 l 1,48,-1
467 667 m 1,54,-1
 467 801 l 1,55,-1
 399 801 l 1,56,-1
 399 667 l 1,57,-1
 467 667 l 1,54,-1
EndSplineSet
EndChar

StartChar: NameMe.272
Encoding: 272 -1 190
Width: 600
VWidth: 0
Flags: W
LayerCount: 2
Back
SplineSet
34 804 m 29
 35 464 l 1053
300 434 m 5
 34 834 l 21
 -100 834 l 5
 -100 434 l 5
 35 434 l 13
 300 834 l 1029
EndSplineSet
Fore
SplineSet
167.198242188 693.295898438 m 1,0,-1
 272.489257812 852.225585938 l 1,1,-1
 290.71484375 879.736328125 l 1,2,-1
 318.225585938 861.510742188 l 1,3,-1
 345.736328125 843.28515625 l 1,4,-1
 327.510742188 815.774414062 l 1,5,-1
 206.858398438 633.658203125 l 1,6,-1
 327.478515625 452.2734375 l 1,7,-1
 345.751953125 424.794921875 l 1,8,-1
 318.2734375 406.521484375 l 1,9,-1
 290.794921875 388.248046875 l 1,10,-1
 272.521484375 415.7265625 l 1,11,-1
 167.302734375 573.950195312 l 1,12,-1
 62.5107421875 415.774414062 l 2,13,14
 52.72265625 401 52.72265625 401 35 401 c 2,15,-1
 -100 401 l 2,16,17
 -112 401 -112 401 -122.5 410.5 c 128,-1,18
 -133 420 -133 420 -133 434 c 2,19,-1
 -133 834 l 2,20,21
 -133 846 -133 846 -123.5 856.5 c 128,-1,22
 -114 867 -114 867 -100 867 c 2,23,-1
 34 867 l 2,24,25
 51.685546875 867 51.685546875 867 61.478515625 852.2734375 c 2,26,-1
 167.198242188 693.295898438 l 1,0,-1
1.0087890625 801 m 1,27,-1
 -67 801 l 1,28,-1
 -67 467 l 1,29,-1
 1.9912109375 467 l 1,30,-1
 1.0087890625 801 l 1,27,-1
67.234375 724.428710938 m 1,31,-1
 67.767578125 543.2109375 l 1,32,-1
 127.642578125 633.588867188 l 1,33,-1
 67.234375 724.428710938 l 1,31,-1
EndSplineSet
EndChar

StartChar: NameMe.274
Encoding: 274 -1 191
Width: 600
VWidth: 0
Flags: W
LayerCount: 2
Back
SplineSet
34 804 m 29
 35 464 l 1053
300 434 m 5
 34 834 l 21
 -100 834 l 1029
-100 434 m 5
 35 434 l 13
 300 834 l 1029
EndSplineSet
Fore
SplineSet
-133 434 m 1,0,-1
 -133 467 l 1,1,-1
 -100 467 l 1,2,-1
 1.9912109375 467 l 1,3,-1
 1.0087890625 801 l 1,4,-1
 -100 801 l 1,5,-1
 -133 801 l 1,6,-1
 -133 834 l 1,7,-1
 -133 867 l 1,8,-1
 -100 867 l 1,9,-1
 34 867 l 2,10,11
 51.685546875 867 51.685546875 867 61.478515625 852.2734375 c 2,12,-1
 167.198242188 693.295898438 l 1,13,-1
 272.489257812 852.225585938 l 1,14,-1
 290.71484375 879.736328125 l 1,15,-1
 318.225585938 861.510742188 l 1,16,-1
 345.736328125 843.28515625 l 1,17,-1
 327.510742188 815.774414062 l 1,18,-1
 206.858398438 633.658203125 l 1,19,-1
 327.478515625 452.2734375 l 1,20,-1
 345.751953125 424.794921875 l 1,21,-1
 318.2734375 406.521484375 l 1,22,-1
 290.794921875 388.248046875 l 1,23,-1
 272.521484375 415.7265625 l 1,24,-1
 167.302734375 573.950195312 l 1,25,-1
 62.5107421875 415.774414062 l 2,26,27
 52.72265625 401 52.72265625 401 35 401 c 2,28,-1
 -100 401 l 1,29,-1
 -133 401 l 1,30,-1
 -133 434 l 1,0,-1
127.642578125 633.588867188 m 1,31,-1
 67.234375 724.428710938 l 1,32,-1
 67.767578125 543.2109375 l 1,33,-1
 127.642578125 633.588867188 l 1,31,-1
EndSplineSet
EndChar

StartChar: NameMe.273
Encoding: 273 -1 192
Width: 600
VWidth: 0
Flags: W
LayerCount: 2
Back
SplineSet
300 434 m 5
 34 834 l 21
 -100 834 l 5
 -100 434 l 5
 35 434 l 13
 300 834 l 1029
EndSplineSet
Fore
SplineSet
127.642578125 633.588867188 m 1,0,-1
 16.314453125 801 l 1,1,-1
 -67 801 l 1,2,-1
 -67 467 l 1,3,-1
 17.27734375 467 l 1,4,-1
 127.642578125 633.588867188 l 1,0,-1
167.198242188 693.295898438 m 1,5,-1
 272.489257812 852.225585938 l 1,6,-1
 290.71484375 879.736328125 l 1,7,-1
 318.225585938 861.510742188 l 1,8,-1
 345.736328125 843.28515625 l 1,9,-1
 327.510742188 815.774414062 l 1,10,-1
 206.858398438 633.658203125 l 1,11,-1
 327.478515625 452.2734375 l 1,12,-1
 345.751953125 424.794921875 l 1,13,-1
 318.2734375 406.521484375 l 1,14,-1
 290.794921875 388.248046875 l 1,15,-1
 272.521484375 415.7265625 l 1,16,-1
 167.302734375 573.950195312 l 1,17,-1
 62.5107421875 415.774414062 l 2,18,19
 52.72265625 401 52.72265625 401 35 401 c 2,20,-1
 -100 401 l 2,21,22
 -112 401 -112 401 -122.5 410.5 c 128,-1,23
 -133 420 -133 420 -133 434 c 2,24,-1
 -133 834 l 2,25,26
 -133 846 -133 846 -123.5 856.5 c 128,-1,27
 -114 867 -114 867 -100 867 c 2,28,-1
 34 867 l 2,29,30
 51.685546875 867 51.685546875 867 61.478515625 852.2734375 c 2,31,-1
 167.198242188 693.295898438 l 1,5,-1
EndSplineSet
EndChar

StartChar: NameMe.276
Encoding: 276 -1 193
Width: 600
VWidth: 0
Flags: W
LayerCount: 2
Back
SplineSet
34 807 m 5
 34 434 l 29
 300 834 l 1029
300 434 m 5
 34 834 l 21
 -100 834 l 5
 -100 434 l 1029
EndSplineSet
Fore
SplineSet
318.2734375 406.521484375 m 1,0,-1
 290.794921875 388.248046875 l 1,1,-1
 272.521484375 415.7265625 l 1,2,-1
 167 574.405273438 l 1,3,-1
 61.478515625 415.7265625 l 2,4,5
 52.5908203125 402.361328125 52.5908203125 402.361328125 36.5888671875 401.1015625 c 0,6,7
 22.40625 399.985351562 22.40625 399.985351562 11.703125 409.879882812 c 128,-1,8
 1 419.7734375 1 419.7734375 1 434 c 2,9,-1
 1 801 l 1,10,-1
 -67 801 l 1,11,-1
 -67 434 l 1,12,-1
 -67 401 l 1,13,-1
 -100 401 l 1,14,-1
 -133 401 l 1,15,-1
 -133 434 l 1,16,-1
 -133 834 l 2,17,18
 -133 846 -133 846 -123.5 856.5 c 128,-1,19
 -114 867 -114 867 -100 867 c 2,20,-1
 34 867 l 2,21,22
 51.685546875 867 51.685546875 867 61.478515625 852.2734375 c 2,23,-1
 167 693.594726562 l 1,24,-1
 272.521484375 852.2734375 l 1,25,-1
 290.794921875 879.751953125 l 1,26,-1
 318.2734375 861.478515625 l 1,27,-1
 345.751953125 843.205078125 l 1,28,-1
 327.478515625 815.7265625 l 1,29,-1
 206.630859375 634 l 1,30,-1
 327.478515625 452.2734375 l 1,31,-1
 345.751953125 424.794921875 l 1,32,-1
 318.2734375 406.521484375 l 1,0,-1
127.369140625 634 m 1,33,-1
 67 724.78125 l 1,34,-1
 67 543.21875 l 1,35,-1
 127.369140625 634 l 1,33,-1
EndSplineSet
EndChar
